<svg width="539" height="565" viewBox="0 0 539 565" fill="none" xmlns="http://www.w3.org/2000/svg">
<path d="M269.01 26.5239C329.542 26.5239 388.305 46.9395 435.799 84.4702C483.292 122.001 516.739 174.453 530.733 233.345C544.727 292.238 538.449 354.129 512.914 409.012C487.379 463.895 444.081 508.562 390.018 535.791L354.032 464.342C392.017 445.21 422.439 413.826 440.38 375.265C458.321 336.703 462.732 293.218 452.9 251.839C443.068 210.461 419.567 173.607 386.198 147.238C352.829 120.868 311.541 106.524 269.01 106.524V26.5239Z" fill="#EFAC37"/>
<path d="M390.018 535.791C344.884 558.523 294.26 568.082 243.944 563.374C193.628 558.665 145.656 539.878 105.524 509.166L154.142 445.635C182.34 467.213 216.046 480.413 251.398 483.722C286.751 487.03 322.32 480.314 354.032 464.342L390.018 535.791Z" fill="#0F456B"/>
<path d="M105.524 509.166C76.6303 487.055 52.5224 459.312 34.6584 427.616C16.7944 395.92 5.54565 360.93 1.59253 324.762L81.1189 316.07C83.8964 341.482 91.8 366.067 104.351 388.337C116.903 410.607 133.841 430.099 154.142 445.635L105.524 509.166Z" fill="#45A1E2"/>
<path d="M1.59254 324.762C-5.14037 263.162 9.60026 201.125 43.3233 149.137L110.439 192.674C86.7453 229.201 76.3883 272.789 81.1189 316.07L1.59254 324.762Z" fill="#F68B97"/>
<path d="M43.3232 149.137C77.0462 97.1496 127.684 58.3985 186.677 39.4328L211.162 115.594C169.712 128.919 134.134 156.146 110.439 192.674L43.3232 149.137Z" fill="#FB9A99"/>
<path d="M186.677 39.4328C213.284 30.8791 241.062 26.5239 269.01 26.5239V106.524C249.373 106.524 229.857 109.584 211.162 115.594L186.677 39.4328Z" fill="#E5475B"/>
<path fill-rule="evenodd" clip-rule="evenodd" d="M234 3.52386L234 39.1199L233 39.1199L233 3.52386L234 3.52386Z" fill="#777777"/>
<path d="M246.936 4.234C246.504 4.234 245.982 4.27 245.442 4.522L245.73 3.046H250.788V0.453996H243.516L242.256 7.132L244.758 7.744C245.046 7.258 245.586 6.772 246.558 6.772C247.998 6.772 248.448 7.672 248.448 8.554C248.448 9.49 247.98 10.606 246.558 10.606C245.172 10.606 244.596 9.58 244.56 8.842L241.896 9.292C242.166 11.452 244.11 13.198 246.594 13.198C249.384 13.198 251.328 10.948 251.328 8.554C251.328 6.286 249.564 4.234 246.936 4.234Z" fill="#505050"/>
<path d="M255.138 6.124C256.668 6.124 257.784 4.81 257.784 3.208C257.784 1.534 256.632 0.255997 255.084 0.255997C253.608 0.255997 252.402 1.354 252.402 3.19C252.402 5.008 253.626 6.124 255.138 6.124ZM253.194 13H255.102L262.95 0.453996H261.042L253.194 13ZM255.138 4.306C254.634 4.306 254.22 4 254.22 3.19C254.22 2.362 254.616 2.074 255.084 2.074C255.57 2.074 255.966 2.452 255.966 3.208C255.966 3.838 255.606 4.306 255.138 4.306ZM261.042 13.198C262.572 13.198 263.706 11.884 263.706 10.264C263.706 8.608 262.536 7.33 260.988 7.33C259.494 7.33 258.324 8.446 258.324 10.246C258.324 12.1 259.53 13.198 261.042 13.198ZM261.042 11.38C260.574 11.38 260.142 11.092 260.142 10.246C260.142 9.454 260.538 9.148 260.988 9.148C261.492 9.148 261.888 9.526 261.888 10.264C261.888 10.93 261.528 11.38 261.042 11.38Z" fill="#505050"/>
<path d="M273.378 13.24C276.194 13.24 277.65 11.784 277.65 8.888V1.848H275.65V8.744C275.65 10.616 275.026 11.304 273.378 11.304C271.73 11.304 271.122 10.632 271.122 8.744V1.848H269.122V8.968C269.122 11.816 270.578 13.24 273.378 13.24Z" fill="#505050"/>
<path d="M284.175 4.952C283.215 4.952 282.351 5.272 281.791 6.024V5.112H279.871V13H281.791V9.848C281.791 8.44 281.791 6.632 283.583 6.632C285.039 6.632 285.039 7.848 285.039 8.392V13H286.959V7.912C286.959 6.04 285.951 4.952 284.175 4.952Z" fill="#505050"/>
<path d="M291.507 13.16C292.995 13.16 294.579 12.36 294.579 10.52C294.579 7.64 290.451 8.344 290.451 7.144C290.451 6.776 290.835 6.472 291.459 6.472C292.323 6.472 292.755 6.984 293.027 7.48L294.515 6.664C293.923 5.592 292.883 4.952 291.523 4.952C290.003 4.952 288.627 5.736 288.627 7.256C288.627 10.184 292.691 9.304 292.691 10.632C292.691 11.048 292.307 11.56 291.411 11.56C290.355 11.56 289.939 10.84 289.731 10.264L288.195 10.952C288.579 12.152 289.843 13.16 291.507 13.16Z" fill="#505050"/>
<path d="M301.113 5.112V8.104C301.113 9.512 301.113 11.48 299.321 11.48C297.865 11.48 297.865 10.104 297.865 9.56V5.112H295.945V10.04C295.945 11.72 296.777 13.16 298.761 13.16C299.689 13.16 300.553 12.84 301.113 12.088V13H303.033V5.112H301.113Z" fill="#505050"/>
<path d="M309.325 4.952C308.429 4.952 307.549 5.48 307.213 6.456V5.112H305.277V13H307.197V9.032C307.197 7.544 307.773 6.824 308.941 6.824C309.325 6.824 309.629 6.92 309.901 7.096L310.829 5.4C310.317 5.08 309.853 4.952 309.325 4.952Z" fill="#505050"/>
<path d="M318.122 8.952C318.122 6.76 316.938 4.952 314.49 4.952C311.866 4.952 310.746 7.032 310.746 9.096C310.746 11.208 311.898 13.16 314.618 13.16C315.946 13.16 316.986 12.696 317.85 11.736L316.522 10.568C315.978 11.192 315.338 11.416 314.634 11.416C313.386 11.416 312.746 10.728 312.666 9.688H318.074C318.106 9.432 318.122 9.192 318.122 8.952ZM312.65 8.168C312.762 7.384 313.306 6.552 314.474 6.552C315.482 6.552 316.25 7.16 316.282 8.168H312.65Z" fill="#505050"/>
<path fill-rule="evenodd" clip-rule="evenodd" d="M246 439.524L246 502.524L245 502.524L245 439.524L246 439.524Z" fill="#777777"/>
<path d="M258.126 435.978V436.554C258.126 437.562 257.64 437.904 256.74 437.904H255.318V440.046H258.126V448.524H260.844V435.978H258.126Z" fill="#505050"/>
<path d="M269.424 448.722C271.998 448.722 274.302 447.408 274.302 444.726C274.302 443.502 273.852 442.44 272.79 441.702C273.384 441.162 273.744 440.496 273.744 439.524C273.744 437.184 271.692 435.78 269.424 435.78C267.156 435.78 265.104 437.184 265.104 439.524C265.104 440.496 265.464 441.162 266.058 441.702C264.996 442.44 264.546 443.502 264.546 444.726C264.546 447.408 266.85 448.722 269.424 448.722ZM269.424 440.946C268.47 440.946 267.822 440.478 267.822 439.704C267.822 438.894 268.416 438.372 269.424 438.372C270.432 438.372 271.026 438.894 271.026 439.704C271.026 440.478 270.378 440.946 269.424 440.946ZM269.424 446.148C268.146 446.148 267.264 445.572 267.264 444.456C267.264 443.34 268.164 442.782 269.424 442.782C270.684 442.782 271.584 443.34 271.584 444.456C271.584 445.572 270.702 446.148 269.424 446.148Z" fill="#505050"/>
<path d="M277.878 441.648C279.408 441.648 280.524 440.334 280.524 438.732C280.524 437.058 279.372 435.78 277.824 435.78C276.348 435.78 275.142 436.878 275.142 438.714C275.142 440.532 276.366 441.648 277.878 441.648ZM275.934 448.524H277.842L285.69 435.978H283.782L275.934 448.524ZM277.878 439.83C277.374 439.83 276.96 439.524 276.96 438.714C276.96 437.886 277.356 437.598 277.824 437.598C278.31 437.598 278.706 437.976 278.706 438.732C278.706 439.362 278.346 439.83 277.878 439.83ZM283.782 448.722C285.312 448.722 286.446 447.408 286.446 445.788C286.446 444.132 285.276 442.854 283.728 442.854C282.234 442.854 281.064 443.97 281.064 445.77C281.064 447.624 282.27 448.722 283.782 448.722ZM283.782 446.904C283.314 446.904 282.882 446.616 282.882 445.77C282.882 444.978 283.278 444.672 283.728 444.672C284.232 444.672 284.628 445.05 284.628 445.788C284.628 446.454 284.268 446.904 283.782 446.904Z" fill="#505050"/>
<path d="M295.447 448.684C298.439 448.684 299.191 445.724 299.191 442.972C299.191 440.188 298.407 437.196 295.335 437.196C291.959 437.196 291.575 440.572 291.575 442.956C291.575 445.308 291.991 448.684 295.447 448.684ZM295.399 446.844C293.591 446.844 293.543 444.78 293.543 442.956C293.543 441.068 293.591 439.036 295.335 439.036C297.079 439.036 297.127 441.052 297.127 442.94C297.127 444.732 297.095 446.844 295.399 446.844Z" fill="#505050"/>
<path d="M302.982 442.364C304.278 442.364 305.222 441.244 305.222 439.804C305.222 438.332 304.262 437.212 302.934 437.212C301.59 437.212 300.662 438.3 300.662 439.788C300.662 441.276 301.606 442.364 302.982 442.364ZM301.622 448.524H302.982L309.702 437.372H308.342L301.622 448.524ZM302.982 441.068C302.342 441.068 301.958 440.572 301.958 439.788C301.958 439.004 302.326 438.508 302.934 438.508C303.526 438.508 303.926 439.02 303.926 439.804C303.926 440.54 303.526 441.068 302.982 441.068ZM308.39 448.684C309.686 448.684 310.646 447.564 310.646 446.108C310.646 444.652 309.67 443.532 308.342 443.532C306.998 443.532 306.086 444.62 306.086 446.092C306.086 447.596 307.014 448.684 308.39 448.684ZM308.39 447.388C307.766 447.388 307.382 446.892 307.382 446.092C307.382 445.324 307.75 444.828 308.342 444.828C308.95 444.828 309.35 445.34 309.35 446.108C309.35 446.86 308.95 447.388 308.39 447.388Z" fill="#505050"/>
<path d="M319.515 448.684C321.947 448.684 323.467 446.796 323.467 444.572C323.467 442.332 321.947 440.476 319.515 440.476C317.067 440.476 315.563 442.332 315.563 444.572C315.563 446.796 317.067 448.684 319.515 448.684ZM319.515 447.004C318.059 447.004 317.483 445.852 317.483 444.572C317.483 443.276 318.059 442.156 319.515 442.156C320.971 442.156 321.547 443.276 321.547 444.572C321.547 445.852 320.971 447.004 319.515 447.004Z" fill="#505050"/>
<path d="M329.306 440.476C328.346 440.476 327.482 440.796 326.922 441.548V440.636H325.002V448.524H326.922V445.372C326.922 443.964 326.922 442.156 328.714 442.156C330.17 442.156 330.17 443.372 330.17 443.916V448.524H332.09V443.436C332.09 441.564 331.082 440.476 329.306 440.476Z" fill="#505050"/>
<path d="M336.638 448.684C338.126 448.684 339.71 447.884 339.71 446.044C339.71 443.164 335.582 443.868 335.582 442.668C335.582 442.3 335.966 441.996 336.59 441.996C337.454 441.996 337.886 442.508 338.158 443.004L339.646 442.188C339.054 441.116 338.014 440.476 336.654 440.476C335.134 440.476 333.758 441.26 333.758 442.78C333.758 445.708 337.822 444.828 337.822 446.156C337.822 446.572 337.438 447.084 336.542 447.084C335.486 447.084 335.07 446.364 334.862 445.788L333.326 446.476C333.71 447.676 334.974 448.684 336.638 448.684Z" fill="#505050"/>
<path d="M341.282 439.148H343.298V437.372H341.282V439.148ZM341.33 448.524H343.25V440.636H341.33V448.524Z" fill="#505050"/>
<path d="M349.694 442.156V440.636H347.726V437.692L345.806 439.116V440.636H344.526V442.156H345.806V446.316C345.806 447.996 346.926 448.684 348.254 448.684C348.734 448.684 349.214 448.604 349.694 448.444V446.908C349.342 447.02 349.006 447.084 348.734 447.084C348.11 447.084 347.726 446.796 347.726 446.172V442.156H349.694Z" fill="#505050"/>
<path d="M358.019 444.476C358.019 442.284 356.835 440.476 354.387 440.476C351.763 440.476 350.643 442.556 350.643 444.62C350.643 446.732 351.795 448.684 354.515 448.684C355.843 448.684 356.883 448.22 357.747 447.26L356.419 446.092C355.875 446.716 355.235 446.94 354.531 446.94C353.283 446.94 352.643 446.252 352.563 445.212H357.971C358.003 444.956 358.019 444.716 358.019 444.476ZM352.547 443.692C352.659 442.908 353.203 442.076 354.371 442.076C355.379 442.076 356.147 442.684 356.179 443.692H352.547Z" fill="#505050"/>
<path fill-rule="evenodd" clip-rule="evenodd" d="M421 289.524H474V290.524H421V289.524Z" fill="#777777"/>
<path d="M347.514 272.998V265.978H345.174L339.18 274.006V275.59H344.796V278.524H347.514V275.59H349.494V272.998H347.514ZM342.564 272.998L344.796 269.866V272.998H342.564Z" fill="#505050"/>
<path d="M355.05 278.704C357.498 278.704 359.856 277.39 359.856 274.582C359.856 273.34 359.334 272.242 357.984 271.648C358.776 271.198 359.19 270.352 359.19 269.308C359.19 267.076 357.3 265.798 355.122 265.798C352.854 265.798 350.856 267.202 350.856 269.65L353.538 269.83C353.556 268.948 354.114 268.39 355.014 268.39C355.824 268.39 356.472 268.822 356.472 269.722C356.472 270.334 356.238 270.928 354.528 270.928V273.052C355.734 273.052 357.138 272.962 357.138 274.456C357.138 275.716 356.112 276.112 355.14 276.112C353.916 276.112 352.944 275.482 352.944 274.276L350.244 274.438C350.244 277.354 352.566 278.704 355.05 278.704Z" fill="#505050"/>
<path d="M363.594 271.648C365.124 271.648 366.24 270.334 366.24 268.732C366.24 267.058 365.088 265.78 363.54 265.78C362.064 265.78 360.858 266.878 360.858 268.714C360.858 270.532 362.082 271.648 363.594 271.648ZM361.65 278.524H363.558L371.406 265.978H369.498L361.65 278.524ZM363.594 269.83C363.09 269.83 362.676 269.524 362.676 268.714C362.676 267.886 363.072 267.598 363.54 267.598C364.026 267.598 364.422 267.976 364.422 268.732C364.422 269.362 364.062 269.83 363.594 269.83ZM369.498 278.722C371.028 278.722 372.162 277.408 372.162 275.788C372.162 274.132 370.992 272.854 369.444 272.854C367.95 272.854 366.78 273.97 366.78 275.77C366.78 277.624 367.986 278.722 369.498 278.722ZM369.498 276.904C369.03 276.904 368.598 276.616 368.598 275.77C368.598 274.978 368.994 274.672 369.444 274.672C369.948 274.672 370.344 275.05 370.344 275.788C370.344 276.454 369.984 276.904 369.498 276.904Z" fill="#505050"/>
<path d="M373.768 273.292H376.264V270.988H373.768V273.292ZM373.768 278.524H376.264V276.252H373.768V278.524Z" fill="#505050"/>
<path d="M343.464 285.372V286.044C343.464 286.796 343.112 287.116 342.344 287.116H340.856V288.716H343.464V296.524H345.384V285.372H343.464Z" fill="#505050"/>
<path d="M353.143 296.684C356.135 296.684 356.887 293.724 356.887 290.972C356.887 288.188 356.103 285.196 353.031 285.196C349.655 285.196 349.271 288.572 349.271 290.956C349.271 293.308 349.687 296.684 353.143 296.684ZM353.095 294.844C351.287 294.844 351.239 292.78 351.239 290.956C351.239 289.068 351.287 287.036 353.031 287.036C354.775 287.036 354.823 289.052 354.823 290.94C354.823 292.732 354.791 294.844 353.095 294.844Z" fill="#505050"/>
<path d="M360.678 290.364C361.974 290.364 362.918 289.244 362.918 287.804C362.918 286.332 361.958 285.212 360.63 285.212C359.286 285.212 358.358 286.3 358.358 287.788C358.358 289.276 359.302 290.364 360.678 290.364ZM359.318 296.524H360.678L367.398 285.372H366.038L359.318 296.524ZM360.678 289.068C360.038 289.068 359.654 288.572 359.654 287.788C359.654 287.004 360.022 286.508 360.63 286.508C361.222 286.508 361.622 287.02 361.622 287.804C361.622 288.54 361.222 289.068 360.678 289.068ZM366.086 296.684C367.382 296.684 368.342 295.564 368.342 294.108C368.342 292.652 367.366 291.532 366.038 291.532C364.694 291.532 363.782 292.62 363.782 294.092C363.782 295.596 364.71 296.684 366.086 296.684ZM366.086 295.388C365.462 295.388 365.078 294.892 365.078 294.092C365.078 293.324 365.446 292.828 366.038 292.828C366.646 292.828 367.046 293.34 367.046 294.108C367.046 294.86 366.646 295.388 366.086 295.388Z" fill="#505050"/>
<path d="M373.119 292.508H377.727V291.068H373.119V292.508Z" fill="#505050"/>
<path d="M386.499 296.684C388.675 296.684 390.627 295.5 390.627 293.244C390.627 292.028 390.067 290.892 388.739 290.476C389.683 289.964 390.035 289.132 390.035 288.268C390.035 286.348 388.323 285.212 386.467 285.212C384.547 285.212 382.899 286.428 382.899 288.524L384.787 288.652C384.803 287.644 385.475 287.052 386.499 287.052C387.395 287.052 388.115 287.516 388.115 288.508C388.115 289.372 387.555 289.932 386.003 289.932V291.452C387.203 291.452 388.707 291.5 388.707 293.036C388.707 294.316 387.683 294.844 386.547 294.844C385.235 294.844 384.259 294.156 384.259 292.892L382.355 293.004C382.355 295.468 384.275 296.684 386.499 296.684Z" fill="#505050"/>
<path d="M396.034 296.684C399.026 296.684 399.778 293.724 399.778 290.972C399.778 288.188 398.994 285.196 395.922 285.196C392.546 285.196 392.162 288.572 392.162 290.956C392.162 293.308 392.578 296.684 396.034 296.684ZM395.986 294.844C394.178 294.844 394.13 292.78 394.13 290.956C394.13 289.068 394.178 287.036 395.922 287.036C397.666 287.036 397.714 289.052 397.714 290.94C397.714 292.732 397.682 294.844 395.986 294.844Z" fill="#505050"/>
<path d="M403.569 290.364C404.865 290.364 405.809 289.244 405.809 287.804C405.809 286.332 404.849 285.212 403.521 285.212C402.177 285.212 401.249 286.3 401.249 287.788C401.249 289.276 402.193 290.364 403.569 290.364ZM402.209 296.524H403.569L410.289 285.372H408.929L402.209 296.524ZM403.569 289.068C402.929 289.068 402.545 288.572 402.545 287.788C402.545 287.004 402.913 286.508 403.521 286.508C404.113 286.508 404.513 287.02 404.513 287.804C404.513 288.54 404.113 289.068 403.569 289.068ZM408.977 296.684C410.273 296.684 411.233 295.564 411.233 294.108C411.233 292.652 410.257 291.532 408.929 291.532C407.585 291.532 406.673 292.62 406.673 294.092C406.673 295.596 407.601 296.684 408.977 296.684ZM408.977 295.388C408.353 295.388 407.969 294.892 407.969 294.092C407.969 293.324 408.337 292.828 408.929 292.828C409.537 292.828 409.937 293.34 409.937 294.108C409.937 294.86 409.537 295.388 408.977 295.388Z" fill="#505050"/>
<path d="M343.368 314.684C345.8 314.684 347.32 312.796 347.32 310.572C347.32 308.332 345.8 306.476 343.368 306.476C340.92 306.476 339.416 308.332 339.416 310.572C339.416 312.796 340.92 314.684 343.368 314.684ZM343.368 313.004C341.912 313.004 341.336 311.852 341.336 310.572C341.336 309.276 341.912 308.156 343.368 308.156C344.824 308.156 345.4 309.276 345.4 310.572C345.4 311.852 344.824 313.004 343.368 313.004Z" fill="#505050"/>
<path d="M353.158 306.476C352.198 306.476 351.334 306.796 350.774 307.548V306.636H348.854V314.524H350.774V311.372C350.774 309.964 350.774 308.156 352.566 308.156C354.022 308.156 354.022 309.372 354.022 309.916V314.524H355.942V309.436C355.942 307.564 354.934 306.476 353.158 306.476Z" fill="#505050"/>
<path d="M360.491 314.684C361.979 314.684 363.563 313.884 363.563 312.044C363.563 309.164 359.435 309.868 359.435 308.668C359.435 308.3 359.819 307.996 360.443 307.996C361.307 307.996 361.739 308.508 362.011 309.004L363.499 308.188C362.907 307.116 361.867 306.476 360.507 306.476C358.987 306.476 357.611 307.26 357.611 308.78C357.611 311.708 361.675 310.828 361.675 312.156C361.675 312.572 361.291 313.084 360.395 313.084C359.339 313.084 358.923 312.364 358.715 311.788L357.179 312.476C357.563 313.676 358.827 314.684 360.491 314.684Z" fill="#505050"/>
<path d="M365.134 305.148H367.15V303.372H365.134V305.148ZM365.182 314.524H367.102V306.636H365.182V314.524Z" fill="#505050"/>
<path d="M373.547 308.156V306.636H371.579V303.692L369.659 305.116V306.636H368.379V308.156H369.659V312.316C369.659 313.996 370.779 314.684 372.107 314.684C372.587 314.684 373.067 314.604 373.547 314.444V312.908C373.195 313.02 372.859 313.084 372.587 313.084C371.963 313.084 371.579 312.796 371.579 312.172V308.156H373.547Z" fill="#505050"/>
<path d="M381.871 310.476C381.871 308.284 380.687 306.476 378.239 306.476C375.615 306.476 374.495 308.556 374.495 310.62C374.495 312.732 375.647 314.684 378.367 314.684C379.695 314.684 380.735 314.22 381.599 313.26L380.271 312.092C379.727 312.716 379.087 312.94 378.383 312.94C377.135 312.94 376.495 312.252 376.415 311.212H381.823C381.855 310.956 381.871 310.716 381.871 310.476ZM376.399 309.692C376.511 308.908 377.055 308.076 378.223 308.076C379.231 308.076 379.999 308.684 380.031 309.692H376.399Z" fill="#505050"/>
<path fill-rule="evenodd" clip-rule="evenodd" d="M74 379.524H127V380.524H74V379.524Z" fill="#777777"/>
<path d="M142.824 362.978V363.554C142.824 364.562 142.338 364.904 141.438 364.904H140.016V367.046H142.824V375.524H145.542V362.978H142.824Z" fill="#505050"/>
<path d="M154.05 375.704C156.498 375.704 158.856 374.39 158.856 371.582C158.856 370.34 158.334 369.242 156.984 368.648C157.776 368.198 158.19 367.352 158.19 366.308C158.19 364.076 156.3 362.798 154.122 362.798C151.854 362.798 149.856 364.202 149.856 366.65L152.538 366.83C152.556 365.948 153.114 365.39 154.014 365.39C154.824 365.39 155.472 365.822 155.472 366.722C155.472 367.334 155.238 367.928 153.528 367.928V370.052C154.734 370.052 156.138 369.962 156.138 371.456C156.138 372.716 155.112 373.112 154.14 373.112C152.916 373.112 151.944 372.482 151.944 371.276L149.244 371.438C149.244 374.354 151.566 375.704 154.05 375.704Z" fill="#505050"/>
<path d="M162.594 368.648C164.124 368.648 165.24 367.334 165.24 365.732C165.24 364.058 164.088 362.78 162.54 362.78C161.064 362.78 159.858 363.878 159.858 365.714C159.858 367.532 161.082 368.648 162.594 368.648ZM160.65 375.524H162.558L170.406 362.978H168.498L160.65 375.524ZM162.594 366.83C162.09 366.83 161.676 366.524 161.676 365.714C161.676 364.886 162.072 364.598 162.54 364.598C163.026 364.598 163.422 364.976 163.422 365.732C163.422 366.362 163.062 366.83 162.594 366.83ZM168.498 375.722C170.028 375.722 171.162 374.408 171.162 372.788C171.162 371.132 169.992 369.854 168.444 369.854C166.95 369.854 165.78 370.97 165.78 372.77C165.78 374.624 166.986 375.722 168.498 375.722ZM168.498 373.904C168.03 373.904 167.598 373.616 167.598 372.77C167.598 371.978 167.994 371.672 168.444 371.672C168.948 371.672 169.344 372.05 169.344 372.788C169.344 373.454 168.984 373.904 168.498 373.904Z" fill="#505050"/>
<path d="M172.768 370.292H175.264V367.988H172.768V370.292ZM172.768 375.524H175.264V373.252H172.768V375.524Z" fill="#505050"/>
<path d="M142.464 382.372V383.044C142.464 383.796 142.112 384.116 141.344 384.116H139.856V385.716H142.464V393.524H144.384V382.372H142.464Z" fill="#505050"/>
<path d="M152.143 393.684C155.135 393.684 155.887 390.724 155.887 387.972C155.887 385.188 155.103 382.196 152.031 382.196C148.655 382.196 148.271 385.572 148.271 387.956C148.271 390.308 148.687 393.684 152.143 393.684ZM152.095 391.844C150.287 391.844 150.239 389.78 150.239 387.956C150.239 386.068 150.287 384.036 152.031 384.036C153.775 384.036 153.823 386.052 153.823 387.94C153.823 389.732 153.791 391.844 152.095 391.844Z" fill="#505050"/>
<path d="M161.518 393.684C164.51 393.684 165.262 390.724 165.262 387.972C165.262 385.188 164.478 382.196 161.406 382.196C158.03 382.196 157.646 385.572 157.646 387.956C157.646 390.308 158.062 393.684 161.518 393.684ZM161.47 391.844C159.662 391.844 159.614 389.78 159.614 387.956C159.614 386.068 159.662 384.036 161.406 384.036C163.15 384.036 163.198 386.052 163.198 387.94C163.198 389.732 163.166 391.844 161.47 391.844Z" fill="#505050"/>
<path d="M169.053 387.364C170.349 387.364 171.293 386.244 171.293 384.804C171.293 383.332 170.333 382.212 169.005 382.212C167.661 382.212 166.733 383.3 166.733 384.788C166.733 386.276 167.677 387.364 169.053 387.364ZM167.693 393.524H169.053L175.773 382.372H174.413L167.693 393.524ZM169.053 386.068C168.413 386.068 168.029 385.572 168.029 384.788C168.029 384.004 168.397 383.508 169.005 383.508C169.597 383.508 169.997 384.02 169.997 384.804C169.997 385.54 169.597 386.068 169.053 386.068ZM174.461 393.684C175.757 393.684 176.717 392.564 176.717 391.108C176.717 389.652 175.741 388.532 174.413 388.532C173.069 388.532 172.157 389.62 172.157 391.092C172.157 392.596 173.085 393.684 174.461 393.684ZM174.461 392.388C173.837 392.388 173.453 391.892 173.453 391.092C173.453 390.324 173.821 389.828 174.413 389.828C175.021 389.828 175.421 390.34 175.421 391.108C175.421 391.86 175.021 392.388 174.461 392.388Z" fill="#505050"/>
<path d="M185.587 393.684C188.019 393.684 189.539 391.796 189.539 389.572C189.539 387.332 188.019 385.476 185.587 385.476C183.139 385.476 181.635 387.332 181.635 389.572C181.635 391.796 183.139 393.684 185.587 393.684ZM185.587 392.004C184.131 392.004 183.555 390.852 183.555 389.572C183.555 388.276 184.131 387.156 185.587 387.156C187.043 387.156 187.619 388.276 187.619 389.572C187.619 390.852 187.043 392.004 185.587 392.004Z" fill="#505050"/>
<path d="M195.377 385.476C194.417 385.476 193.553 385.796 192.993 386.548V385.636H191.073V393.524H192.993V390.372C192.993 388.964 192.993 387.156 194.785 387.156C196.241 387.156 196.241 388.372 196.241 388.916V393.524H198.161V388.436C198.161 386.564 197.153 385.476 195.377 385.476Z" fill="#505050"/>
<path d="M202.709 393.684C204.197 393.684 205.781 392.884 205.781 391.044C205.781 388.164 201.653 388.868 201.653 387.668C201.653 387.3 202.037 386.996 202.661 386.996C203.525 386.996 203.957 387.508 204.229 388.004L205.717 387.188C205.125 386.116 204.085 385.476 202.725 385.476C201.205 385.476 199.829 386.26 199.829 387.78C199.829 390.708 203.893 389.828 203.893 391.156C203.893 391.572 203.509 392.084 202.613 392.084C201.557 392.084 201.141 391.364 200.933 390.788L199.397 391.476C199.781 392.676 201.045 393.684 202.709 393.684Z" fill="#505050"/>
<path d="M207.353 384.148H209.369V382.372H207.353V384.148ZM207.401 393.524H209.321V385.636H207.401V393.524Z" fill="#505050"/>
<path d="M215.765 387.156V385.636H213.797V382.692L211.877 384.116V385.636H210.597V387.156H211.877V391.316C211.877 392.996 212.997 393.684 214.325 393.684C214.805 393.684 215.285 393.604 215.765 393.444V391.908C215.413 392.02 215.077 392.084 214.805 392.084C214.181 392.084 213.797 391.796 213.797 391.172V387.156H215.765Z" fill="#505050"/>
<path d="M224.09 389.476C224.09 387.284 222.906 385.476 220.458 385.476C217.834 385.476 216.714 387.556 216.714 389.62C216.714 391.732 217.866 393.684 220.586 393.684C221.914 393.684 222.954 393.22 223.818 392.26L222.49 391.092C221.946 391.716 221.306 391.94 220.602 391.94C219.354 391.94 218.714 391.252 218.634 390.212H224.042C224.074 389.956 224.09 389.716 224.09 389.476ZM218.618 388.692C218.73 387.908 219.274 387.076 220.442 387.076C221.45 387.076 222.218 387.684 222.25 388.692H218.618Z" fill="#505050"/>
<path fill-rule="evenodd" clip-rule="evenodd" d="M51 258.524H104V259.524H51V258.524Z" fill="#777777"/>
<path d="M119.824 241.978V242.554C119.824 243.562 119.338 243.904 118.438 243.904H117.016V246.046H119.824V254.524H122.542V241.978H119.824Z" fill="#505050"/>
<path d="M130.582 241.978V242.554C130.582 243.562 130.096 243.904 129.196 243.904H127.774V246.046H130.582V254.524H133.3V241.978H130.582Z" fill="#505050"/>
<path d="M139.594 247.648C141.124 247.648 142.24 246.334 142.24 244.732C142.24 243.058 141.088 241.78 139.54 241.78C138.064 241.78 136.858 242.878 136.858 244.714C136.858 246.532 138.082 247.648 139.594 247.648ZM137.65 254.524H139.558L147.406 241.978H145.498L137.65 254.524ZM139.594 245.83C139.09 245.83 138.676 245.524 138.676 244.714C138.676 243.886 139.072 243.598 139.54 243.598C140.026 243.598 140.422 243.976 140.422 244.732C140.422 245.362 140.062 245.83 139.594 245.83ZM145.498 254.722C147.028 254.722 148.162 253.408 148.162 251.788C148.162 250.132 146.992 248.854 145.444 248.854C143.95 248.854 142.78 249.97 142.78 251.77C142.78 253.624 143.986 254.722 145.498 254.722ZM145.498 252.904C145.03 252.904 144.598 252.616 144.598 251.77C144.598 250.978 144.994 250.672 145.444 250.672C145.948 250.672 146.344 251.05 146.344 251.788C146.344 252.454 145.984 252.904 145.498 252.904Z" fill="#505050"/>
<path d="M149.768 249.292H152.264V246.988H149.768V249.292ZM149.768 254.524H152.264V252.252H149.768V254.524Z" fill="#505050"/>
<path d="M115.688 261.372V263.212H121.304L116.584 272.524H118.792L123.736 262.396V261.372H115.688Z" fill="#505050"/>
<path d="M129.143 272.684C132.135 272.684 132.887 269.724 132.887 266.972C132.887 264.188 132.103 261.196 129.031 261.196C125.655 261.196 125.271 264.572 125.271 266.956C125.271 269.308 125.687 272.684 129.143 272.684ZM129.095 270.844C127.287 270.844 127.239 268.78 127.239 266.956C127.239 265.068 127.287 263.036 129.031 263.036C130.775 263.036 130.823 265.052 130.823 266.94C130.823 268.732 130.791 270.844 129.095 270.844Z" fill="#505050"/>
<path d="M136.678 266.364C137.974 266.364 138.918 265.244 138.918 263.804C138.918 262.332 137.958 261.212 136.63 261.212C135.286 261.212 134.358 262.3 134.358 263.788C134.358 265.276 135.302 266.364 136.678 266.364ZM135.318 272.524H136.678L143.398 261.372H142.038L135.318 272.524ZM136.678 265.068C136.038 265.068 135.654 264.572 135.654 263.788C135.654 263.004 136.022 262.508 136.63 262.508C137.222 262.508 137.622 263.02 137.622 263.804C137.622 264.54 137.222 265.068 136.678 265.068ZM142.086 272.684C143.382 272.684 144.342 271.564 144.342 270.108C144.342 268.652 143.366 267.532 142.038 267.532C140.694 267.532 139.782 268.62 139.782 270.092C139.782 271.596 140.71 272.684 142.086 272.684ZM142.086 271.388C141.462 271.388 141.078 270.892 141.078 270.092C141.078 269.324 141.446 268.828 142.038 268.828C142.646 268.828 143.046 269.34 143.046 270.108C143.046 270.86 142.646 271.388 142.086 271.388Z" fill="#505050"/>
<path d="M146.041 268.508H150.649V267.068H146.041V268.508Z" fill="#505050"/>
<path d="M156.406 261.212C154.182 261.212 152.358 262.796 152.358 265.1C152.358 267.276 153.83 268.94 156.118 268.94C156.31 268.94 156.486 268.924 156.678 268.908L154.326 272.524H156.534L159.862 267.164C160.262 266.524 160.486 265.804 160.486 265.084C160.486 262.796 158.646 261.212 156.406 261.212ZM156.406 267.148C155.238 267.148 154.31 266.38 154.31 265.1C154.31 263.82 155.238 263.052 156.406 263.052C157.59 263.052 158.518 263.82 158.518 265.1C158.518 266.38 157.59 267.148 156.406 267.148Z" fill="#505050"/>
<path d="M165.877 272.684C168.869 272.684 169.621 269.724 169.621 266.972C169.621 264.188 168.837 261.196 165.765 261.196C162.389 261.196 162.005 264.572 162.005 266.956C162.005 269.308 162.421 272.684 165.877 272.684ZM165.829 270.844C164.021 270.844 163.973 268.78 163.973 266.956C163.973 265.068 164.021 263.036 165.765 263.036C167.509 263.036 167.557 265.052 167.557 266.94C167.557 268.732 167.525 270.844 165.829 270.844Z" fill="#505050"/>
<path d="M173.412 266.364C174.708 266.364 175.652 265.244 175.652 263.804C175.652 262.332 174.692 261.212 173.364 261.212C172.02 261.212 171.092 262.3 171.092 263.788C171.092 265.276 172.036 266.364 173.412 266.364ZM172.052 272.524H173.412L180.132 261.372H178.772L172.052 272.524ZM173.412 265.068C172.772 265.068 172.388 264.572 172.388 263.788C172.388 263.004 172.756 262.508 173.364 262.508C173.956 262.508 174.356 263.02 174.356 263.804C174.356 264.54 173.956 265.068 173.412 265.068ZM178.82 272.684C180.116 272.684 181.076 271.564 181.076 270.108C181.076 268.652 180.1 267.532 178.772 267.532C177.428 267.532 176.516 268.62 176.516 270.092C176.516 271.596 177.444 272.684 178.82 272.684ZM178.82 271.388C178.196 271.388 177.812 270.892 177.812 270.092C177.812 269.324 178.18 268.828 178.772 268.828C179.38 268.828 179.78 269.34 179.78 270.108C179.78 270.86 179.38 271.388 178.82 271.388Z" fill="#505050"/>
<path d="M119.368 290.684C121.8 290.684 123.32 288.796 123.32 286.572C123.32 284.332 121.8 282.476 119.368 282.476C116.92 282.476 115.416 284.332 115.416 286.572C115.416 288.796 116.92 290.684 119.368 290.684ZM119.368 289.004C117.912 289.004 117.336 287.852 117.336 286.572C117.336 285.276 117.912 284.156 119.368 284.156C120.824 284.156 121.4 285.276 121.4 286.572C121.4 287.852 120.824 289.004 119.368 289.004Z" fill="#505050"/>
<path d="M129.158 282.476C128.198 282.476 127.334 282.796 126.774 283.548V282.636H124.854V290.524H126.774V287.372C126.774 285.964 126.774 284.156 128.566 284.156C130.022 284.156 130.022 285.372 130.022 285.916V290.524H131.942V285.436C131.942 283.564 130.934 282.476 129.158 282.476Z" fill="#505050"/>
<path d="M136.491 290.684C137.979 290.684 139.563 289.884 139.563 288.044C139.563 285.164 135.435 285.868 135.435 284.668C135.435 284.3 135.819 283.996 136.443 283.996C137.307 283.996 137.739 284.508 138.011 285.004L139.499 284.188C138.907 283.116 137.867 282.476 136.507 282.476C134.987 282.476 133.611 283.26 133.611 284.78C133.611 287.708 137.675 286.828 137.675 288.156C137.675 288.572 137.291 289.084 136.395 289.084C135.339 289.084 134.923 288.364 134.715 287.788L133.179 288.476C133.563 289.676 134.827 290.684 136.491 290.684Z" fill="#505050"/>
<path d="M141.135 281.148H143.151V279.372H141.135V281.148ZM141.183 290.524H143.103V282.636H141.183V290.524Z" fill="#505050"/>
<path d="M149.547 284.156V282.636H147.579V279.692L145.659 281.116V282.636H144.379V284.156H145.659V288.316C145.659 289.996 146.779 290.684 148.107 290.684C148.587 290.684 149.067 290.604 149.547 290.444V288.908C149.195 289.02 148.859 289.084 148.587 289.084C147.963 289.084 147.579 288.796 147.579 288.172V284.156H149.547Z" fill="#505050"/>
<path d="M157.871 286.476C157.871 284.284 156.687 282.476 154.239 282.476C151.615 282.476 150.495 284.556 150.495 286.62C150.495 288.732 151.647 290.684 154.367 290.684C155.695 290.684 156.735 290.22 157.599 289.26L156.271 288.092C155.727 288.716 155.087 288.94 154.383 288.94C153.135 288.94 152.495 288.252 152.415 287.212H157.823C157.855 286.956 157.871 286.716 157.871 286.476ZM152.399 285.692C152.511 284.908 153.055 284.076 154.223 284.076C155.231 284.076 155.999 284.684 156.031 285.692H152.399Z" fill="#505050"/>
<path fill-rule="evenodd" clip-rule="evenodd" d="M121 153.524H174V154.524H121V153.524Z" fill="#777777"/>
<path d="M189.824 136.978V137.554C189.824 138.562 189.338 138.904 188.438 138.904H187.016V141.046H189.824V149.524H192.542V136.978H189.824Z" fill="#505050"/>
<path d="M200.582 136.978V137.554C200.582 138.562 200.096 138.904 199.196 138.904H197.774V141.046H200.582V149.524H203.3V136.978H200.582Z" fill="#505050"/>
<path d="M209.594 142.648C211.124 142.648 212.24 141.334 212.24 139.732C212.24 138.058 211.088 136.78 209.54 136.78C208.064 136.78 206.858 137.878 206.858 139.714C206.858 141.532 208.082 142.648 209.594 142.648ZM207.65 149.524H209.558L217.406 136.978H215.498L207.65 149.524ZM209.594 140.83C209.09 140.83 208.676 140.524 208.676 139.714C208.676 138.886 209.072 138.598 209.54 138.598C210.026 138.598 210.422 138.976 210.422 139.732C210.422 140.362 210.062 140.83 209.594 140.83ZM215.498 149.722C217.028 149.722 218.162 148.408 218.162 146.788C218.162 145.132 216.992 143.854 215.444 143.854C213.95 143.854 212.78 144.97 212.78 146.77C212.78 148.624 213.986 149.722 215.498 149.722ZM215.498 147.904C215.03 147.904 214.598 147.616 214.598 146.77C214.598 145.978 214.994 145.672 215.444 145.672C215.948 145.672 216.344 146.05 216.344 146.788C216.344 147.454 215.984 147.904 215.498 147.904Z" fill="#505050"/>
<path d="M219.768 144.292H222.264V141.988H219.768V144.292ZM219.768 149.524H222.264V147.252H219.768V149.524Z" fill="#505050"/>
<path d="M192.568 162.612V156.372H190.488L185.16 163.508V164.916H190.152V167.524H192.568V164.916H194.328V162.612H192.568ZM188.168 162.612L190.152 159.828V162.612H188.168Z" fill="#505050"/>
<path d="M199.331 167.684C202.323 167.684 203.075 164.724 203.075 161.972C203.075 159.188 202.291 156.196 199.219 156.196C195.843 156.196 195.459 159.572 195.459 161.956C195.459 164.308 195.875 167.684 199.331 167.684ZM199.283 165.844C197.475 165.844 197.427 163.78 197.427 161.956C197.427 160.068 197.475 158.036 199.219 158.036C200.963 158.036 201.011 160.052 201.011 161.94C201.011 163.732 200.979 165.844 199.283 165.844Z" fill="#505050"/>
<path d="M206.866 161.364C208.162 161.364 209.106 160.244 209.106 158.804C209.106 157.332 208.146 156.212 206.818 156.212C205.474 156.212 204.546 157.3 204.546 158.788C204.546 160.276 205.49 161.364 206.866 161.364ZM205.506 167.524H206.866L213.586 156.372H212.226L205.506 167.524ZM206.866 160.068C206.226 160.068 205.842 159.572 205.842 158.788C205.842 158.004 206.21 157.508 206.818 157.508C207.41 157.508 207.81 158.02 207.81 158.804C207.81 159.54 207.41 160.068 206.866 160.068ZM212.274 167.684C213.57 167.684 214.53 166.564 214.53 165.108C214.53 163.652 213.554 162.532 212.226 162.532C210.882 162.532 209.97 163.62 209.97 165.092C209.97 166.596 210.898 167.684 212.274 167.684ZM212.274 166.388C211.65 166.388 211.266 165.892 211.266 165.092C211.266 164.324 211.634 163.828 212.226 163.828C212.834 163.828 213.234 164.34 213.234 165.108C213.234 165.86 212.834 166.388 212.274 166.388Z" fill="#505050"/>
<path d="M216.229 163.508H220.837V162.068H216.229V163.508Z" fill="#505050"/>
<path d="M226.93 159.956C226.738 159.956 226.562 159.972 226.37 159.988L228.722 156.372H226.514L223.186 161.732C222.786 162.372 222.562 163.092 222.562 163.812C222.562 166.1 224.402 167.684 226.642 167.684C228.866 167.684 230.69 166.1 230.69 163.796C230.69 161.62 229.218 159.956 226.93 159.956ZM226.642 165.844C225.458 165.844 224.53 165.076 224.53 163.796C224.53 162.516 225.458 161.748 226.642 161.748C227.81 161.748 228.738 162.516 228.738 163.796C228.738 165.076 227.81 165.844 226.642 165.844Z" fill="#505050"/>
<path d="M236.065 167.684C239.057 167.684 239.809 164.724 239.809 161.972C239.809 159.188 239.025 156.196 235.953 156.196C232.577 156.196 232.193 159.572 232.193 161.956C232.193 164.308 232.609 167.684 236.065 167.684ZM236.017 165.844C234.209 165.844 234.161 163.78 234.161 161.956C234.161 160.068 234.209 158.036 235.953 158.036C237.697 158.036 237.745 160.052 237.745 161.94C237.745 163.732 237.713 165.844 236.017 165.844Z" fill="#505050"/>
<path d="M243.6 161.364C244.896 161.364 245.84 160.244 245.84 158.804C245.84 157.332 244.88 156.212 243.552 156.212C242.208 156.212 241.28 157.3 241.28 158.788C241.28 160.276 242.224 161.364 243.6 161.364ZM242.24 167.524H243.6L250.32 156.372H248.96L242.24 167.524ZM243.6 160.068C242.96 160.068 242.576 159.572 242.576 158.788C242.576 158.004 242.944 157.508 243.552 157.508C244.144 157.508 244.544 158.02 244.544 158.804C244.544 159.54 244.144 160.068 243.6 160.068ZM249.008 167.684C250.304 167.684 251.264 166.564 251.264 165.108C251.264 163.652 250.288 162.532 248.96 162.532C247.616 162.532 246.704 163.62 246.704 165.092C246.704 166.596 247.632 167.684 249.008 167.684ZM249.008 166.388C248.384 166.388 248 165.892 248 165.092C248 164.324 248.368 163.828 248.96 163.828C249.568 163.828 249.968 164.34 249.968 165.108C249.968 165.86 249.568 166.388 249.008 166.388Z" fill="#505050"/>
<path d="M189.368 185.684C191.8 185.684 193.32 183.796 193.32 181.572C193.32 179.332 191.8 177.476 189.368 177.476C186.92 177.476 185.416 179.332 185.416 181.572C185.416 183.796 186.92 185.684 189.368 185.684ZM189.368 184.004C187.912 184.004 187.336 182.852 187.336 181.572C187.336 180.276 187.912 179.156 189.368 179.156C190.824 179.156 191.4 180.276 191.4 181.572C191.4 182.852 190.824 184.004 189.368 184.004Z" fill="#505050"/>
<path d="M199.158 177.476C198.198 177.476 197.334 177.796 196.774 178.548V177.636H194.854V185.524H196.774V182.372C196.774 180.964 196.774 179.156 198.566 179.156C200.022 179.156 200.022 180.372 200.022 180.916V185.524H201.942V180.436C201.942 178.564 200.934 177.476 199.158 177.476Z" fill="#505050"/>
<path d="M206.491 185.684C207.979 185.684 209.563 184.884 209.563 183.044C209.563 180.164 205.435 180.868 205.435 179.668C205.435 179.3 205.819 178.996 206.443 178.996C207.307 178.996 207.739 179.508 208.011 180.004L209.499 179.188C208.907 178.116 207.867 177.476 206.507 177.476C204.987 177.476 203.611 178.26 203.611 179.78C203.611 182.708 207.675 181.828 207.675 183.156C207.675 183.572 207.291 184.084 206.395 184.084C205.339 184.084 204.923 183.364 204.715 182.788L203.179 183.476C203.563 184.676 204.827 185.684 206.491 185.684Z" fill="#505050"/>
<path d="M211.135 176.148H213.151V174.372H211.135V176.148ZM211.183 185.524H213.103V177.636H211.183V185.524Z" fill="#505050"/>
<path d="M219.547 179.156V177.636H217.579V174.692L215.659 176.116V177.636H214.379V179.156H215.659V183.316C215.659 184.996 216.779 185.684 218.107 185.684C218.587 185.684 219.067 185.604 219.547 185.444V183.908C219.195 184.02 218.859 184.084 218.587 184.084C217.963 184.084 217.579 183.796 217.579 183.172V179.156H219.547Z" fill="#505050"/>
<path d="M227.871 181.476C227.871 179.284 226.687 177.476 224.239 177.476C221.615 177.476 220.495 179.556 220.495 181.62C220.495 183.732 221.647 185.684 224.367 185.684C225.695 185.684 226.735 185.22 227.599 184.26L226.271 183.092C225.727 183.716 225.087 183.94 224.383 183.94C223.135 183.94 222.495 183.252 222.415 182.212H227.823C227.855 181.956 227.871 181.716 227.871 181.476ZM222.399 180.692C222.511 179.908 223.055 179.076 224.223 179.076C225.231 179.076 225.999 179.684 226.031 180.692H222.399Z" fill="#505050"/>
</svg>
