<svg width="662" height="209" viewBox="0 0 662 209" fill="none" xmlns="http://www.w3.org/2000/svg">
<path d="M67.5825 208.14C70.2005 208.14 70.8585 205.55 70.8585 203.142C70.8585 200.706 70.1725 198.088 67.4845 198.088C64.5305 198.088 64.1945 201.042 64.1945 203.128C64.1945 205.186 64.5585 208.14 67.5825 208.14ZM67.5405 206.53C65.9585 206.53 65.9165 204.724 65.9165 203.128C65.9165 201.476 65.9585 199.698 67.4845 199.698C69.0105 199.698 69.0525 201.462 69.0525 203.114C69.0525 204.682 69.0245 206.53 67.5405 206.53Z" fill="#505050"/>
<path d="M74.1756 202.61C75.3096 202.61 76.1356 201.63 76.1356 200.37C76.1356 199.082 75.2956 198.102 74.1336 198.102C72.9576 198.102 72.1456 199.054 72.1456 200.356C72.1456 201.658 72.9716 202.61 74.1756 202.61ZM72.9856 208H74.1756L80.0556 198.242H78.8656L72.9856 208ZM74.1756 201.476C73.6156 201.476 73.2796 201.042 73.2796 200.356C73.2796 199.67 73.6016 199.236 74.1336 199.236C74.6516 199.236 75.0016 199.684 75.0016 200.37C75.0016 201.014 74.6516 201.476 74.1756 201.476ZM78.9076 208.14C80.0416 208.14 80.8816 207.16 80.8816 205.886C80.8816 204.612 80.0276 203.632 78.8656 203.632C77.6896 203.632 76.8916 204.584 76.8916 205.872C76.8916 207.188 77.7036 208.14 78.9076 208.14ZM78.9076 207.006C78.3616 207.006 78.0256 206.572 78.0256 205.872C78.0256 205.2 78.3476 204.766 78.8656 204.766C79.3976 204.766 79.7476 205.214 79.7476 205.886C79.7476 206.544 79.3976 207.006 78.9076 207.006Z" fill="#505050"/>
<path d="M124.451 201.294C124.003 201.294 123.471 201.378 122.939 201.714L123.289 199.852H127.335V198.242H121.903L120.965 203.38L122.547 203.772C122.869 203.268 123.401 202.862 124.227 202.862C125.459 202.862 125.991 203.688 125.991 204.598C125.991 205.55 125.417 206.53 124.185 206.53C123.023 206.53 122.421 205.704 122.323 204.906L120.671 205.186C120.909 206.824 122.323 208.14 124.199 208.14C126.285 208.14 127.769 206.46 127.769 204.598C127.769 202.82 126.411 201.294 124.451 201.294Z" fill="#505050"/>
<path d="M130.918 202.61C132.052 202.61 132.878 201.63 132.878 200.37C132.878 199.082 132.038 198.102 130.876 198.102C129.7 198.102 128.888 199.054 128.888 200.356C128.888 201.658 129.714 202.61 130.918 202.61ZM129.728 208H130.918L136.798 198.242H135.608L129.728 208ZM130.918 201.476C130.358 201.476 130.022 201.042 130.022 200.356C130.022 199.67 130.344 199.236 130.876 199.236C131.394 199.236 131.744 199.684 131.744 200.37C131.744 201.014 131.394 201.476 130.918 201.476ZM135.65 208.14C136.784 208.14 137.624 207.16 137.624 205.886C137.624 204.612 136.77 203.632 135.608 203.632C134.432 203.632 133.634 204.584 133.634 205.872C133.634 207.188 134.446 208.14 135.65 208.14ZM135.65 207.006C135.104 207.006 134.768 206.572 134.768 205.872C134.768 205.2 135.09 204.766 135.608 204.766C136.14 204.766 136.49 205.214 136.49 205.886C136.49 206.544 136.14 207.006 135.65 207.006Z" fill="#505050"/>
<path d="M177.852 198.242V198.83C177.852 199.488 177.544 199.768 176.872 199.768H175.57V201.168H177.852V208H179.532V198.242H177.852Z" fill="#505050"/>
<path d="M186.321 208.14C188.939 208.14 189.597 205.55 189.597 203.142C189.597 200.706 188.911 198.088 186.223 198.088C183.269 198.088 182.933 201.042 182.933 203.128C182.933 205.186 183.297 208.14 186.321 208.14ZM186.279 206.53C184.697 206.53 184.655 204.724 184.655 203.128C184.655 201.476 184.697 199.698 186.223 199.698C187.749 199.698 187.791 201.462 187.791 203.114C187.791 204.682 187.763 206.53 186.279 206.53Z" fill="#505050"/>
<path d="M192.914 202.61C194.048 202.61 194.874 201.63 194.874 200.37C194.874 199.082 194.034 198.102 192.872 198.102C191.696 198.102 190.884 199.054 190.884 200.356C190.884 201.658 191.71 202.61 192.914 202.61ZM191.724 208H192.914L198.794 198.242H197.604L191.724 208ZM192.914 201.476C192.354 201.476 192.018 201.042 192.018 200.356C192.018 199.67 192.34 199.236 192.872 199.236C193.39 199.236 193.74 199.684 193.74 200.37C193.74 201.014 193.39 201.476 192.914 201.476ZM197.646 208.14C198.78 208.14 199.62 207.16 199.62 205.886C199.62 204.612 198.766 203.632 197.604 203.632C196.428 203.632 195.63 204.584 195.63 205.872C195.63 207.188 196.442 208.14 197.646 208.14ZM197.646 207.006C197.1 207.006 196.764 206.572 196.764 205.872C196.764 205.2 197.086 204.766 197.604 204.766C198.136 204.766 198.486 205.214 198.486 205.886C198.486 206.544 198.136 207.006 197.646 207.006Z" fill="#505050"/>
<path d="M235.645 198.242V198.83C235.645 199.488 235.337 199.768 234.665 199.768H233.363V201.168H235.645V208H237.325V198.242H235.645Z" fill="#505050"/>
<path d="M244.24 201.294C243.792 201.294 243.26 201.378 242.728 201.714L243.078 199.852H247.124V198.242H241.692L240.754 203.38L242.336 203.772C242.658 203.268 243.19 202.862 244.016 202.862C245.248 202.862 245.78 203.688 245.78 204.598C245.78 205.55 245.206 206.53 243.974 206.53C242.812 206.53 242.21 205.704 242.112 204.906L240.46 205.186C240.698 206.824 242.112 208.14 243.988 208.14C246.074 208.14 247.558 206.46 247.558 204.598C247.558 202.82 246.2 201.294 244.24 201.294Z" fill="#505050"/>
<path d="M250.707 202.61C251.841 202.61 252.667 201.63 252.667 200.37C252.667 199.082 251.827 198.102 250.665 198.102C249.489 198.102 248.677 199.054 248.677 200.356C248.677 201.658 249.503 202.61 250.707 202.61ZM249.517 208H250.707L256.587 198.242H255.397L249.517 208ZM250.707 201.476C250.147 201.476 249.811 201.042 249.811 200.356C249.811 199.67 250.133 199.236 250.665 199.236C251.183 199.236 251.533 199.684 251.533 200.37C251.533 201.014 251.183 201.476 250.707 201.476ZM255.439 208.14C256.573 208.14 257.413 207.16 257.413 205.886C257.413 204.612 256.559 203.632 255.397 203.632C254.221 203.632 253.423 204.584 253.423 205.872C253.423 207.188 254.235 208.14 255.439 208.14ZM255.439 207.006C254.893 207.006 254.557 206.572 254.557 205.872C254.557 205.2 254.879 204.766 255.397 204.766C255.929 204.766 256.279 205.214 256.279 205.886C256.279 206.544 255.929 207.006 255.439 207.006Z" fill="#505050"/>
<path d="M293.102 206.418C294.782 205.382 296.658 203.338 296.658 201.14C296.658 199.32 295.384 198.116 293.592 198.116C291.422 198.116 290.246 199.88 290.246 201.672L291.898 201.798C291.94 200.79 292.332 199.74 293.564 199.74C294.53 199.74 294.978 200.384 294.978 201.266C294.978 203.548 291.954 205.564 290.232 206.614V208H297.064V206.418H293.102Z" fill="#505050"/>
<path d="M301.907 208.14C304.525 208.14 305.183 205.55 305.183 203.142C305.183 200.706 304.497 198.088 301.809 198.088C298.855 198.088 298.519 201.042 298.519 203.128C298.519 205.186 298.883 208.14 301.907 208.14ZM301.865 206.53C300.283 206.53 300.241 204.724 300.241 203.128C300.241 201.476 300.283 199.698 301.809 199.698C303.335 199.698 303.377 201.462 303.377 203.114C303.377 204.682 303.349 206.53 301.865 206.53Z" fill="#505050"/>
<path d="M308.501 202.61C309.635 202.61 310.461 201.63 310.461 200.37C310.461 199.082 309.621 198.102 308.459 198.102C307.283 198.102 306.471 199.054 306.471 200.356C306.471 201.658 307.297 202.61 308.501 202.61ZM307.311 208H308.501L314.381 198.242H313.191L307.311 208ZM308.501 201.476C307.941 201.476 307.605 201.042 307.605 200.356C307.605 199.67 307.927 199.236 308.459 199.236C308.977 199.236 309.327 199.684 309.327 200.37C309.327 201.014 308.977 201.476 308.501 201.476ZM313.233 208.14C314.367 208.14 315.207 207.16 315.207 205.886C315.207 204.612 314.353 203.632 313.191 203.632C312.015 203.632 311.217 204.584 311.217 205.872C311.217 207.188 312.029 208.14 313.233 208.14ZM313.233 207.006C312.687 207.006 312.351 206.572 312.351 205.872C312.351 205.2 312.673 204.766 313.191 204.766C313.723 204.766 314.073 205.214 314.073 205.886C314.073 206.544 313.723 207.006 313.233 207.006Z" fill="#505050"/>
<path d="M350.895 206.418C352.575 205.382 354.451 203.338 354.451 201.14C354.451 199.32 353.177 198.116 351.385 198.116C349.215 198.116 348.039 199.88 348.039 201.672L349.691 201.798C349.733 200.79 350.125 199.74 351.357 199.74C352.323 199.74 352.771 200.384 352.771 201.266C352.771 203.548 349.747 205.564 348.025 206.614V208H354.857V206.418H350.895Z" fill="#505050"/>
<path d="M359.827 201.294C359.379 201.294 358.847 201.378 358.315 201.714L358.665 199.852H362.711V198.242H357.279L356.341 203.38L357.923 203.772C358.245 203.268 358.777 202.862 359.603 202.862C360.835 202.862 361.367 203.688 361.367 204.598C361.367 205.55 360.793 206.53 359.561 206.53C358.399 206.53 357.797 205.704 357.699 204.906L356.047 205.186C356.285 206.824 357.699 208.14 359.575 208.14C361.661 208.14 363.145 206.46 363.145 204.598C363.145 202.82 361.787 201.294 359.827 201.294Z" fill="#505050"/>
<path d="M366.294 202.61C367.428 202.61 368.254 201.63 368.254 200.37C368.254 199.082 367.414 198.102 366.252 198.102C365.076 198.102 364.264 199.054 364.264 200.356C364.264 201.658 365.09 202.61 366.294 202.61ZM365.104 208H366.294L372.174 198.242H370.984L365.104 208ZM366.294 201.476C365.734 201.476 365.398 201.042 365.398 200.356C365.398 199.67 365.72 199.236 366.252 199.236C366.77 199.236 367.12 199.684 367.12 200.37C367.12 201.014 366.77 201.476 366.294 201.476ZM371.026 208.14C372.16 208.14 373 207.16 373 205.886C373 204.612 372.146 203.632 370.984 203.632C369.808 203.632 369.01 204.584 369.01 205.872C369.01 207.188 369.822 208.14 371.026 208.14ZM371.026 207.006C370.48 207.006 370.144 206.572 370.144 205.872C370.144 205.2 370.466 204.766 370.984 204.766C371.516 204.766 371.866 205.214 371.866 205.886C371.866 206.544 371.516 207.006 371.026 207.006Z" fill="#505050"/>
<path d="M409.15 208.14C411.054 208.14 412.762 207.104 412.762 205.13C412.762 204.066 412.272 203.072 411.11 202.708C411.936 202.26 412.244 201.532 412.244 200.776C412.244 199.096 410.746 198.102 409.122 198.102C407.442 198.102 406 199.166 406 201L407.652 201.112C407.666 200.23 408.254 199.712 409.15 199.712C409.934 199.712 410.564 200.118 410.564 200.986C410.564 201.742 410.074 202.232 408.716 202.232V203.562C409.766 203.562 411.082 203.604 411.082 204.948C411.082 206.068 410.186 206.53 409.192 206.53C408.044 206.53 407.19 205.928 407.19 204.822L405.524 204.92C405.524 207.076 407.204 208.14 409.15 208.14Z" fill="#505050"/>
<path d="M417.494 208.14C420.112 208.14 420.77 205.55 420.77 203.142C420.77 200.706 420.084 198.088 417.396 198.088C414.442 198.088 414.106 201.042 414.106 203.128C414.106 205.186 414.47 208.14 417.494 208.14ZM417.452 206.53C415.87 206.53 415.828 204.724 415.828 203.128C415.828 201.476 415.87 199.698 417.396 199.698C418.922 199.698 418.964 201.462 418.964 203.114C418.964 204.682 418.936 206.53 417.452 206.53Z" fill="#505050"/>
<path d="M424.087 202.61C425.221 202.61 426.047 201.63 426.047 200.37C426.047 199.082 425.207 198.102 424.045 198.102C422.869 198.102 422.057 199.054 422.057 200.356C422.057 201.658 422.883 202.61 424.087 202.61ZM422.897 208H424.087L429.967 198.242H428.777L422.897 208ZM424.087 201.476C423.527 201.476 423.191 201.042 423.191 200.356C423.191 199.67 423.513 199.236 424.045 199.236C424.563 199.236 424.913 199.684 424.913 200.37C424.913 201.014 424.563 201.476 424.087 201.476ZM428.819 208.14C429.953 208.14 430.793 207.16 430.793 205.886C430.793 204.612 429.939 203.632 428.777 203.632C427.601 203.632 426.803 204.584 426.803 205.872C426.803 207.188 427.615 208.14 428.819 208.14ZM428.819 207.006C428.273 207.006 427.937 206.572 427.937 205.872C427.937 205.2 428.259 204.766 428.777 204.766C429.309 204.766 429.659 205.214 429.659 205.886C429.659 206.544 429.309 207.006 428.819 207.006Z" fill="#505050"/>
<path d="M466.944 208.14C468.848 208.14 470.556 207.104 470.556 205.13C470.556 204.066 470.066 203.072 468.904 202.708C469.73 202.26 470.038 201.532 470.038 200.776C470.038 199.096 468.54 198.102 466.916 198.102C465.236 198.102 463.794 199.166 463.794 201L465.446 201.112C465.46 200.23 466.048 199.712 466.944 199.712C467.728 199.712 468.358 200.118 468.358 200.986C468.358 201.742 467.868 202.232 466.51 202.232V203.562C467.56 203.562 468.876 203.604 468.876 204.948C468.876 206.068 467.98 206.53 466.986 206.53C465.838 206.53 464.984 205.928 464.984 204.822L463.318 204.92C463.318 207.076 464.998 208.14 466.944 208.14Z" fill="#505050"/>
<path d="M475.413 201.294C474.965 201.294 474.433 201.378 473.901 201.714L474.251 199.852H478.297V198.242H472.865L471.927 203.38L473.509 203.772C473.831 203.268 474.363 202.862 475.189 202.862C476.421 202.862 476.953 203.688 476.953 204.598C476.953 205.55 476.379 206.53 475.147 206.53C473.985 206.53 473.383 205.704 473.285 204.906L471.633 205.186C471.871 206.824 473.285 208.14 475.161 208.14C477.247 208.14 478.731 206.46 478.731 204.598C478.731 202.82 477.373 201.294 475.413 201.294Z" fill="#505050"/>
<path d="M481.88 202.61C483.014 202.61 483.84 201.63 483.84 200.37C483.84 199.082 483 198.102 481.838 198.102C480.662 198.102 479.85 199.054 479.85 200.356C479.85 201.658 480.676 202.61 481.88 202.61ZM480.69 208H481.88L487.76 198.242H486.57L480.69 208ZM481.88 201.476C481.32 201.476 480.984 201.042 480.984 200.356C480.984 199.67 481.306 199.236 481.838 199.236C482.356 199.236 482.706 199.684 482.706 200.37C482.706 201.014 482.356 201.476 481.88 201.476ZM486.612 208.14C487.746 208.14 488.586 207.16 488.586 205.886C488.586 204.612 487.732 203.632 486.57 203.632C485.394 203.632 484.596 204.584 484.596 205.872C484.596 207.188 485.408 208.14 486.612 208.14ZM486.612 207.006C486.066 207.006 485.73 206.572 485.73 205.872C485.73 205.2 486.052 204.766 486.57 204.766C487.102 204.766 487.452 205.214 487.452 205.886C487.452 206.544 487.102 207.006 486.612 207.006Z" fill="#505050"/>
<path d="M527.131 204.094V198.242H525.661L520.887 204.696V205.704H525.451V208H527.131V205.704H528.685V204.094H527.131ZM523.015 204.094L525.451 200.664V204.094H523.015Z" fill="#505050"/>
<path d="M533.08 208.14C535.698 208.14 536.356 205.55 536.356 203.142C536.356 200.706 535.67 198.088 532.982 198.088C530.028 198.088 529.692 201.042 529.692 203.128C529.692 205.186 530.056 208.14 533.08 208.14ZM533.038 206.53C531.456 206.53 531.414 204.724 531.414 203.128C531.414 201.476 531.456 199.698 532.982 199.698C534.508 199.698 534.55 201.462 534.55 203.114C534.55 204.682 534.522 206.53 533.038 206.53Z" fill="#505050"/>
<path d="M539.673 202.61C540.807 202.61 541.633 201.63 541.633 200.37C541.633 199.082 540.793 198.102 539.631 198.102C538.455 198.102 537.643 199.054 537.643 200.356C537.643 201.658 538.469 202.61 539.673 202.61ZM538.483 208H539.673L545.553 198.242H544.363L538.483 208ZM539.673 201.476C539.113 201.476 538.777 201.042 538.777 200.356C538.777 199.67 539.099 199.236 539.631 199.236C540.149 199.236 540.499 199.684 540.499 200.37C540.499 201.014 540.149 201.476 539.673 201.476ZM544.405 208.14C545.539 208.14 546.379 207.16 546.379 205.886C546.379 204.612 545.525 203.632 544.363 203.632C543.187 203.632 542.389 204.584 542.389 205.872C542.389 207.188 543.201 208.14 544.405 208.14ZM544.405 207.006C543.859 207.006 543.523 206.572 543.523 205.872C543.523 205.2 543.845 204.766 544.363 204.766C544.895 204.766 545.245 205.214 545.245 205.886C545.245 206.544 544.895 207.006 544.405 207.006Z" fill="#505050"/>
<path d="M584.924 204.094V198.242H583.454L578.68 204.696V205.704H583.244V208H584.924V205.704H586.478V204.094H584.924ZM580.808 204.094L583.244 200.664V204.094H580.808Z" fill="#505050"/>
<path d="M590.999 201.294C590.551 201.294 590.019 201.378 589.487 201.714L589.837 199.852H593.883V198.242H588.451L587.513 203.38L589.095 203.772C589.417 203.268 589.949 202.862 590.775 202.862C592.007 202.862 592.539 203.688 592.539 204.598C592.539 205.55 591.965 206.53 590.733 206.53C589.571 206.53 588.969 205.704 588.871 204.906L587.219 205.186C587.457 206.824 588.871 208.14 590.747 208.14C592.833 208.14 594.317 206.46 594.317 204.598C594.317 202.82 592.959 201.294 590.999 201.294Z" fill="#505050"/>
<path d="M597.466 202.61C598.6 202.61 599.426 201.63 599.426 200.37C599.426 199.082 598.586 198.102 597.424 198.102C596.248 198.102 595.436 199.054 595.436 200.356C595.436 201.658 596.262 202.61 597.466 202.61ZM596.276 208H597.466L603.346 198.242H602.156L596.276 208ZM597.466 201.476C596.906 201.476 596.57 201.042 596.57 200.356C596.57 199.67 596.892 199.236 597.424 199.236C597.942 199.236 598.292 199.684 598.292 200.37C598.292 201.014 597.942 201.476 597.466 201.476ZM602.198 208.14C603.332 208.14 604.172 207.16 604.172 205.886C604.172 204.612 603.318 203.632 602.156 203.632C600.98 203.632 600.182 204.584 600.182 205.872C600.182 207.188 600.994 208.14 602.198 208.14ZM602.198 207.006C601.652 207.006 601.316 206.572 601.316 205.872C601.316 205.2 601.638 204.766 602.156 204.766C602.688 204.766 603.038 205.214 603.038 205.886C603.038 206.544 602.688 207.006 602.198 207.006Z" fill="#505050"/>
<path d="M640.589 201.294C640.141 201.294 639.609 201.378 639.077 201.714L639.427 199.852H643.473V198.242H638.041L637.103 203.38L638.685 203.772C639.007 203.268 639.539 202.862 640.365 202.862C641.597 202.862 642.129 203.688 642.129 204.598C642.129 205.55 641.555 206.53 640.323 206.53C639.161 206.53 638.559 205.704 638.461 204.906L636.809 205.186C637.047 206.824 638.461 208.14 640.337 208.14C642.423 208.14 643.907 206.46 643.907 204.598C643.907 202.82 642.549 201.294 640.589 201.294Z" fill="#505050"/>
<path d="M648.666 208.14C651.284 208.14 651.942 205.55 651.942 203.142C651.942 200.706 651.256 198.088 648.568 198.088C645.614 198.088 645.278 201.042 645.278 203.128C645.278 205.186 645.642 208.14 648.666 208.14ZM648.624 206.53C647.042 206.53 647 204.724 647 203.128C647 201.476 647.042 199.698 648.568 199.698C650.094 199.698 650.136 201.462 650.136 203.114C650.136 204.682 650.108 206.53 648.624 206.53Z" fill="#505050"/>
<path d="M655.259 202.61C656.393 202.61 657.219 201.63 657.219 200.37C657.219 199.082 656.379 198.102 655.217 198.102C654.041 198.102 653.229 199.054 653.229 200.356C653.229 201.658 654.055 202.61 655.259 202.61ZM654.069 208H655.259L661.139 198.242H659.949L654.069 208ZM655.259 201.476C654.699 201.476 654.363 201.042 654.363 200.356C654.363 199.67 654.685 199.236 655.217 199.236C655.735 199.236 656.085 199.684 656.085 200.37C656.085 201.014 655.735 201.476 655.259 201.476ZM659.991 208.14C661.125 208.14 661.965 207.16 661.965 205.886C661.965 204.612 661.111 203.632 659.949 203.632C658.773 203.632 657.975 204.584 657.975 205.872C657.975 207.188 658.787 208.14 659.991 208.14ZM659.991 207.006C659.445 207.006 659.109 206.572 659.109 205.872C659.109 205.2 659.431 204.766 659.949 204.766C660.481 204.766 660.831 205.214 660.831 205.886C660.831 206.544 660.481 207.006 659.991 207.006Z" fill="#505050"/>
<path d="M0.443237 20H3.25724C6.56124 20 8.35324 18.306 8.35324 15.198C8.35324 12.034 6.50524 10.242 3.27124 10.242H0.443237V20ZM2.19324 18.39V11.852H3.24324C5.55324 11.852 6.58924 12.874 6.58924 15.128C6.58924 17.424 5.55324 18.39 3.08924 18.39H2.19324Z" fill="#505050"/>
<path d="M9.82893 11.796H11.5929V10.242H9.82893V11.796ZM9.87093 20H11.5509V13.098H9.87093V20Z" fill="#505050"/>
<path d="M15.6776 20.14C16.9796 20.14 18.3656 19.44 18.3656 17.83C18.3656 15.31 14.7536 15.926 14.7536 14.876C14.7536 14.554 15.0896 14.288 15.6356 14.288C16.3916 14.288 16.7696 14.736 17.0076 15.17L18.3096 14.456C17.7916 13.518 16.8816 12.958 15.6916 12.958C14.3616 12.958 13.1576 13.644 13.1576 14.974C13.1576 17.536 16.7136 16.766 16.7136 17.928C16.7136 18.292 16.3776 18.74 15.5936 18.74C14.6696 18.74 14.3056 18.11 14.1236 17.606L12.7796 18.208C13.1156 19.258 14.2216 20.14 15.6776 20.14Z" fill="#505050"/>
<path d="M23.465 14.428V13.098H21.743V10.242L20.063 11.488V13.098H18.943V14.428H20.063V18.068C20.063 19.538 21.043 20.14 22.205 20.14C22.625 20.14 23.045 20.07 23.465 19.93V18.586C23.157 18.684 22.863 18.74 22.625 18.74C22.079 18.74 21.743 18.488 21.743 17.942V14.428H23.465Z" fill="#505050"/>
<path d="M28.3836 12.958C27.5996 12.958 26.8296 13.42 26.5356 14.274V13.098H24.8416V20H26.5216V16.528C26.5216 15.226 27.0256 14.596 28.0476 14.596C28.3836 14.596 28.6496 14.68 28.8876 14.834L29.6996 13.35C29.2516 13.07 28.8456 12.958 28.3836 12.958Z" fill="#505050"/>
<path d="M30.5145 11.796H32.2785V10.242H30.5145V11.796ZM30.5565 20H32.2365V13.098H30.5565V20Z" fill="#505050"/>
<path d="M36.9372 20.14C38.3092 20.14 39.3732 19.384 39.8352 18.096L38.3092 17.508C38.1272 18.222 37.5952 18.67 36.9232 18.67C35.7472 18.67 35.3132 17.662 35.3132 16.57C35.3132 15.478 35.7612 14.428 36.9232 14.428C37.6092 14.428 38.1272 14.89 38.3092 15.618L39.9052 14.988C39.3732 13.616 38.2952 12.958 36.9232 12.958C34.6692 12.958 33.5912 14.75 33.5912 16.57C33.5912 18.39 34.6832 20.14 36.9372 20.14Z" fill="#505050"/>
<path d="M44.7932 14.428V13.098H43.0712V10.242L41.3912 11.488V13.098H40.2712V14.428H41.3912V18.068C41.3912 19.538 42.3712 20.14 43.5332 20.14C43.9532 20.14 44.3732 20.07 44.7932 19.93V18.586C44.4852 18.684 44.1912 18.74 43.9532 18.74C43.4072 18.74 43.0712 18.488 43.0712 17.942V14.428H44.7932Z" fill="#505050"/>
<path d="M52.4707 20.14C54.5987 20.14 55.9287 18.488 55.9287 16.542C55.9287 14.582 54.5987 12.958 52.4707 12.958C50.3287 12.958 49.0127 14.582 49.0127 16.542C49.0127 18.488 50.3287 20.14 52.4707 20.14ZM52.4707 18.67C51.1967 18.67 50.6927 17.662 50.6927 16.542C50.6927 15.408 51.1967 14.428 52.4707 14.428C53.7447 14.428 54.2487 15.408 54.2487 16.542C54.2487 17.662 53.7447 18.67 52.4707 18.67Z" fill="#505050"/>
<path d="M57.6773 20H59.3573V14.428H60.9673V13.098H59.3573V12.3C59.3573 12.048 59.3573 11.502 59.9593 11.502C60.1833 11.502 60.3793 11.572 60.5333 11.67L61.0793 10.382C60.7153 10.214 60.3093 10.102 59.7773 10.102C58.6853 10.102 57.6913 10.564 57.6913 12.314V13.098H56.3613V14.428H57.6773V20Z" fill="#505050"/>
<path d="M6.02082 34.21C8.10682 34.21 9.67482 33.188 10.3748 31.298L8.73682 30.682C8.31682 31.914 7.36482 32.544 6.02082 32.544C4.14482 32.544 3.03882 31.298 3.03882 29.1C3.03882 26.916 4.13082 25.684 6.02082 25.684C7.35082 25.684 8.30282 26.286 8.73682 27.504L10.3468 26.874C9.63282 25.012 8.07882 24.018 6.02082 24.018C3.13682 24.018 1.28882 25.992 1.28882 29.114C1.28882 32.236 3.13682 34.21 6.02082 34.21Z" fill="#505050"/>
<path d="M14.2715 34.14C16.3995 34.14 17.7295 32.488 17.7295 30.542C17.7295 28.582 16.3995 26.958 14.2715 26.958C12.1295 26.958 10.8135 28.582 10.8135 30.542C10.8135 32.488 12.1295 34.14 14.2715 34.14ZM14.2715 32.67C12.9975 32.67 12.4935 31.662 12.4935 30.542C12.4935 29.408 12.9975 28.428 14.2715 28.428C15.5455 28.428 16.0495 29.408 16.0495 30.542C16.0495 31.662 15.5455 32.67 14.2715 32.67Z" fill="#505050"/>
<path d="M20.6261 34.14C20.9481 34.14 21.3261 34.07 21.7041 33.93V32.586C21.5081 32.642 21.3261 32.67 21.1721 32.67C20.8641 32.67 20.6821 32.544 20.6821 32.236V24.242H19.0021V32.348C19.0021 33.58 19.6881 34.14 20.6261 34.14Z" fill="#505050"/>
<path d="M27.2952 27.098V29.716C27.2952 30.948 27.2952 32.67 25.7272 32.67C24.4532 32.67 24.4532 31.466 24.4532 30.99V27.098H22.7732V31.41C22.7732 32.88 23.5012 34.14 25.2372 34.14C26.0492 34.14 26.8052 33.86 27.2952 33.202V34H28.9752V27.098H27.2952Z" fill="#505050"/>
<path d="M38.6533 26.958C37.7573 26.958 36.9593 27.28 36.4273 28.316C36.0073 27.252 35.1673 26.958 34.4113 26.958C33.7253 26.958 33.0113 27.196 32.5633 27.966V27.098H30.9393L30.9533 34H32.6333V31.368C32.6333 29.982 32.5913 28.428 34.0053 28.428C35.0973 28.428 35.1673 29.562 35.1673 30.108V34H36.8473V31.368C36.8473 29.982 36.7913 28.428 38.2053 28.428C39.3113 28.428 39.3813 29.562 39.3813 30.108V34H41.0613V29.604C41.0613 28.218 40.3193 26.958 38.6533 26.958Z" fill="#505050"/>
<path d="M46.5295 26.958C45.7455 26.958 44.9755 27.28 44.5415 27.798V24.242H42.8615V34H44.5415V33.314C45.0175 33.902 45.7875 34.14 46.5295 34.14C48.4055 34.14 49.4415 32.614 49.4415 30.542C49.4415 28.288 48.2235 26.958 46.5295 26.958ZM46.1235 32.586C44.9055 32.586 44.3875 31.704 44.3875 30.556C44.3875 29.408 44.9055 28.484 46.1095 28.484C47.2295 28.484 47.7615 29.268 47.7615 30.556C47.7615 31.83 47.2435 32.586 46.1235 32.586Z" fill="#505050"/>
<path d="M50.8309 25.796H52.5949V24.242H50.8309V25.796ZM50.8729 34H52.5529V27.098H50.8729V34Z" fill="#505050"/>
<path d="M57.1836 26.958C55.9236 26.958 54.9016 27.448 54.0756 28.442L55.2936 29.464C55.7976 28.792 56.4556 28.428 57.1556 28.428C57.9536 28.428 58.4576 28.89 58.4576 29.646V29.842H56.7356C55.9516 29.842 55.3636 29.94 54.9016 30.15C54.2296 30.458 53.8656 31.074 53.8656 31.886C53.8656 33.202 54.9016 34.14 56.3576 34.14C57.2676 34.14 58.0516 33.748 58.4576 33.104L58.5976 34H60.1376V29.646C60.1376 27.98 59.0036 26.958 57.1836 26.958ZM56.6236 32.712C55.9516 32.712 55.5456 32.404 55.5456 31.914C55.5456 31.662 55.6436 31.466 55.8256 31.34C56.0496 31.172 56.3856 31.102 56.9596 31.102H58.4576C58.4576 31.998 57.6316 32.712 56.6236 32.712Z" fill="#505050"/>
<path d="M9.4518 66.242L6.9318 73.116L4.4258 66.242H1.9198V76H3.6698V68.706L6.0918 75.146H7.7858L10.2078 68.706V76H11.9578V66.242H9.4518Z" fill="#505050"/>
<path d="M16.8105 68.958C15.5505 68.958 14.5285 69.448 13.7025 70.442L14.9205 71.464C15.4245 70.792 16.0825 70.428 16.7825 70.428C17.5805 70.428 18.0845 70.89 18.0845 71.646V71.842H16.3625C15.5785 71.842 14.9905 71.94 14.5285 72.15C13.8565 72.458 13.4925 73.074 13.4925 73.886C13.4925 75.202 14.5286 76.14 15.9846 76.14C16.8946 76.14 17.6785 75.748 18.0845 75.104L18.2246 76H19.7645V71.646C19.7645 69.98 18.6305 68.958 16.8105 68.958ZM16.2505 74.712C15.5785 74.712 15.1726 74.404 15.1726 73.914C15.1726 73.662 15.2705 73.466 15.4525 73.34C15.6765 73.172 16.0125 73.102 16.5865 73.102H18.0845C18.0845 73.998 17.2585 74.712 16.2505 74.712Z" fill="#505050"/>
<path d="M25.075 68.958C24.291 68.958 23.521 69.42 23.227 70.274V69.098H21.533V76H23.213V72.528C23.213 71.226 23.717 70.596 24.739 70.596C25.075 70.596 25.341 70.68 25.579 70.834L26.391 69.35C25.943 69.07 25.537 68.958 25.075 68.958Z" fill="#505050"/>
<path d="M27.9687 78.856H29.7887L33.7087 69.098H31.8607L30.0967 73.886L28.3467 69.098H26.4987L29.2007 75.818L27.9687 78.856Z" fill="#505050"/>
<path d="M36.171 76.14C36.493 76.14 36.871 76.07 37.249 75.93V74.586C37.053 74.642 36.871 74.67 36.717 74.67C36.409 74.67 36.227 74.544 36.227 74.236V66.242H34.547V74.348C34.547 75.58 35.233 76.14 36.171 76.14Z" fill="#505050"/>
<path d="M41.1465 68.958C39.8865 68.958 38.8645 69.448 38.0385 70.442L39.2565 71.464C39.7605 70.792 40.4185 70.428 41.1185 70.428C41.9165 70.428 42.4205 70.89 42.4205 71.646V71.842H40.6985C39.9145 71.842 39.3265 71.94 38.8645 72.15C38.1925 72.458 37.8285 73.074 37.8285 73.886C37.8285 75.202 38.8645 76.14 40.3205 76.14C41.2305 76.14 42.0145 75.748 42.4205 75.104L42.5605 76H44.1005V71.646C44.1005 69.98 42.9665 68.958 41.1465 68.958ZM40.5865 74.712C39.9145 74.712 39.5085 74.404 39.5085 73.914C39.5085 73.662 39.6065 73.466 39.7885 73.34C40.0125 73.172 40.3485 73.102 40.9225 73.102H42.4205C42.4205 73.998 41.5945 74.712 40.5865 74.712Z" fill="#505050"/>
<path d="M49.635 68.958C48.795 68.958 48.039 69.238 47.549 69.896V69.098H45.869V76H47.549V73.242C47.549 72.01 47.549 70.428 49.117 70.428C50.391 70.428 50.391 71.492 50.391 71.968V76H52.071V71.548C52.071 69.91 51.189 68.958 49.635 68.958Z" fill="#505050"/>
<path d="M58.2487 66.242V69.798C57.8147 69.28 57.0447 68.958 56.2607 68.958C54.5667 68.958 53.3487 70.288 53.3487 72.542C53.3487 74.614 54.3847 76.14 56.2607 76.14C57.0027 76.14 57.7727 75.902 58.2487 75.314V76H59.9287V66.242H58.2487ZM56.6667 74.586C55.5467 74.586 55.0287 73.83 55.0287 72.556C55.0287 71.268 55.5607 70.484 56.6807 70.484C57.8847 70.484 58.4027 71.408 58.4027 72.556C58.4027 73.704 57.8847 74.586 56.6667 74.586Z" fill="#505050"/>
<path d="M20.0664 112.242L17.4484 119.144L14.8164 112.242H12.8844L16.7904 122H18.1064L21.9984 112.242H20.0664Z" fill="#505050"/>
<path d="M22.9949 113.796H24.7589V112.242H22.9949V113.796ZM23.0369 122H24.7169V115.098H23.0369V122Z" fill="#505050"/>
<path d="M30.2156 114.958C29.4316 114.958 28.6616 115.42 28.3676 116.274V115.098H26.6736V122H28.3536V118.528C28.3536 117.226 28.8576 116.596 29.8796 116.596C30.2156 116.596 30.4816 116.68 30.7196 116.834L31.5316 115.35C31.0836 115.07 30.6776 114.958 30.2156 114.958Z" fill="#505050"/>
<path d="M34.679 120.95C33.811 120.838 33.111 120.698 33.111 120.194C33.111 120.026 33.181 119.914 33.307 119.83C33.713 119.998 34.161 120.096 34.637 120.096C36.149 120.096 37.437 119.116 37.437 117.576C37.437 117.128 37.325 116.722 37.143 116.372L38.137 115.56L37.255 114.496L36.205 115.392C35.743 115.112 35.183 114.958 34.581 114.958C33.041 114.958 31.753 115.994 31.753 117.492C31.753 118.094 31.963 118.64 32.313 119.074C31.907 119.424 31.669 119.858 31.669 120.46C31.669 121.174 32.005 121.608 32.495 121.874L31.501 122.504C31.487 122.574 31.473 122.644 31.473 122.812C31.473 124.24 32.649 124.996 34.707 124.996C36.569 124.996 37.885 124.38 37.885 122.938C37.885 121.286 36.079 121.132 34.679 120.95ZM34.609 116.358C35.323 116.358 35.757 116.82 35.757 117.534C35.757 118.206 35.379 118.724 34.609 118.724C33.825 118.724 33.433 118.192 33.433 117.534C33.433 116.834 33.895 116.358 34.609 116.358ZM34.777 123.736C33.993 123.736 33.139 123.554 33.139 122.966C33.139 122.938 33.139 122.896 33.153 122.854L33.755 122.28L34.329 122.364C35.323 122.504 36.205 122.56 36.205 123.092C36.205 123.568 35.491 123.736 34.777 123.736Z" fill="#505050"/>
<path d="M39.1824 113.796H40.9464V112.242H39.1824V113.796ZM39.2244 122H40.9044V115.098H39.2244V122Z" fill="#505050"/>
<path d="M46.6271 114.958C45.7871 114.958 45.0311 115.238 44.5411 115.896V115.098H42.8611V122H44.5411V119.242C44.5411 118.01 44.5411 116.428 46.1091 116.428C47.3831 116.428 47.3831 117.492 47.3831 117.968V122H49.0631V117.548C49.0631 115.91 48.1811 114.958 46.6271 114.958Z" fill="#505050"/>
<path d="M50.8309 113.796H52.5949V112.242H50.8309V113.796ZM50.8729 122H52.5529V115.098H50.8729V122Z" fill="#505050"/>
<path d="M57.1836 114.958C55.9236 114.958 54.9016 115.448 54.0756 116.442L55.2936 117.464C55.7976 116.792 56.4556 116.428 57.1556 116.428C57.9536 116.428 58.4576 116.89 58.4576 117.646V117.842H56.7356C55.9516 117.842 55.3636 117.94 54.9016 118.15C54.2296 118.458 53.8656 119.074 53.8656 119.886C53.8656 121.202 54.9016 122.14 56.3576 122.14C57.2676 122.14 58.0516 121.748 58.4576 121.104L58.5976 122H60.1376V117.646C60.1376 115.98 59.0036 114.958 57.1836 114.958ZM56.6236 120.712C55.9516 120.712 55.5456 120.404 55.5456 119.914C55.5456 119.662 55.6436 119.466 55.8256 119.34C56.0496 119.172 56.3856 119.102 56.9596 119.102H58.4576C58.4576 119.998 57.6316 120.712 56.6236 120.712Z" fill="#505050"/>
<path d="M28.7304 169H30.7184V161.048H33.6724V159.242H25.7764V161.048H28.7304V169Z" fill="#505050"/>
<path d="M36.1179 169.154C38.2879 169.154 39.6179 167.46 39.6179 165.542C39.6179 163.61 38.3019 161.944 36.1179 161.944C33.9199 161.944 32.6179 163.61 32.6179 165.542C32.6179 167.46 33.9339 169.154 36.1179 169.154ZM36.1179 167.488C34.8999 167.488 34.5079 166.522 34.5079 165.542C34.5079 164.534 34.9139 163.596 36.1179 163.596C37.3359 163.596 37.7279 164.534 37.7279 165.542C37.7279 166.536 37.3219 167.488 36.1179 167.488Z" fill="#505050"/>
<path d="M44.6597 163.582V162.098H42.9237V159.242L41.0337 160.642V162.098H39.9137V163.582H41.0337V166.928C41.0337 168.552 42.0977 169.154 43.3297 169.154C43.7917 169.154 44.2257 169.084 44.6597 168.93V167.432C44.3517 167.53 44.0577 167.586 43.7917 167.586C43.0917 167.586 42.9237 167.18 42.9237 166.774V163.582H44.6597Z" fill="#505050"/>
<path d="M48.7748 161.944C47.5428 161.944 46.3948 162.392 45.5548 163.344L46.9268 164.492C47.4868 163.862 48.0748 163.596 48.6908 163.596C49.4748 163.596 49.9368 164.002 49.9368 164.632V164.786H48.1168C47.4168 164.786 46.8568 164.884 46.4088 165.108C45.7788 165.43 45.4148 166.018 45.4148 166.83C45.4148 168.188 46.4928 169.154 47.9908 169.154C48.6908 169.154 49.4608 168.902 49.9508 168.202L50.0908 169H51.8268V164.632C51.8268 162.98 50.6648 161.944 48.7748 161.944ZM48.2988 167.586C47.6548 167.586 47.3048 167.278 47.3048 166.858C47.3048 166.648 47.3888 166.48 47.5568 166.368C47.7248 166.242 47.9908 166.186 48.3828 166.186H49.9368C49.9228 166.984 49.1808 167.586 48.2988 167.586Z" fill="#505050"/>
<path d="M55.0379 169.154C55.3599 169.154 55.7519 169.084 56.1579 168.93V167.432C55.9759 167.474 55.8079 167.502 55.6679 167.502C55.3879 167.502 55.2199 167.418 55.2199 167.096V159.242H53.3299V167.292C53.3299 168.58 54.0719 169.154 55.0379 169.154Z" fill="#505050"/>
<path d="M57.6604 164.324H59.6764V162.406H57.6604V164.324ZM57.6604 169H59.6764V167.096H57.6604V169Z" fill="#505050"/>
<path fill-rule="evenodd" clip-rule="evenodd" d="M648.314 1.5H71.434V0.5H648.314V1.5Z" fill="#F0F0F0"/>
<path fill-rule="evenodd" clip-rule="evenodd" d="M648.314 47.5H71.434V46.5H648.314V47.5Z" fill="#F0F0F0"/>
<path fill-rule="evenodd" clip-rule="evenodd" d="M648.314 94.5H71.434V93.5H648.314V94.5Z" fill="#F0F0F0"/>
<path fill-rule="evenodd" clip-rule="evenodd" d="M648.314 141.5H71.434V140.5H648.314V141.5Z" fill="#F0F0F0"/>
<path fill-rule="evenodd" clip-rule="evenodd" d="M648.314 188.5H71.434V187.5H648.314V188.5Z" fill="#F0F0F0"/>
<path d="M71.434 38V10H359.349V38H71.434Z" fill="#45A1E2"/>
<path d="M71.434 85V57H544.287V85H71.434Z" fill="#45A1E2"/>
<path d="M71.434 131V103H498.052V131H71.434Z" fill="#45A1E2"/>
<path d="M71.434 178V150H486.494V178H71.434Z" fill="#E6485B"/>
</svg>
