<svg width="539" height="565" fill="none" xmlns="http://www.w3.org/2000/svg"><path d="M269.01 26.524a269.012 269.012 0 01261.723 206.821 269.006 269.006 0 01-140.715 302.446l-35.986-71.449A189.014 189.014 0 00452.9 251.839a189.011 189.011 0 00-183.89-145.315v-80z" fill="#EFAC37"/><path d="M390.018 535.791a269.01 269.01 0 01-284.494-26.625l48.618-63.531a189.015 189.015 0 00199.89 18.707l35.986 71.449z" fill="#0F456B"/><path d="M105.524 509.166A269.003 269.003 0 011.593 324.762l79.526-8.692a189.02 189.02 0 0073.023 129.565l-48.618 63.531z" fill="#45A1E2"/><path d="M1.593 324.762a269.011 269.011 0 0141.73-175.625l67.116 43.537a189.012 189.012 0 00-29.32 123.396l-79.526 8.692z" fill="#F68B97"/><path d="M43.323 149.137A269.014 269.014 0 01186.677 39.433l24.485 76.161a189.008 189.008 0 00-100.723 77.08l-67.116-43.537z" fill="#FB9A99"/><path d="M186.677 39.433a269.015 269.015 0 0182.333-12.91v80.001a189.01 189.01 0 00-57.848 9.07l-24.485-76.161z" fill="#E5475B"/><path fill-rule="evenodd" clip-rule="evenodd" d="M234 3.524V39.12h-1V3.524h1z" fill="#777"/><path d="M246.936 4.234c-.432 0-.954.036-1.494.288l.288-1.476h5.058V.454h-7.272l-1.26 6.678 2.502.612c.288-.486.828-.972 1.8-.972 1.44 0 1.89.9 1.89 1.782 0 .936-.468 2.052-1.89 2.052-1.386 0-1.962-1.026-1.998-1.764l-2.664.45c.27 2.16 2.214 3.906 4.698 3.906 2.79 0 4.734-2.25 4.734-4.644 0-2.268-1.764-4.32-4.392-4.32zM255.138 6.124c1.53 0 2.646-1.314 2.646-2.916 0-1.674-1.152-2.952-2.7-2.952-1.476 0-2.682 1.098-2.682 2.934 0 1.818 1.224 2.934 2.736 2.934zM253.194 13h1.908L262.95.454h-1.908L253.194 13zm1.944-8.694c-.504 0-.918-.306-.918-1.116 0-.828.396-1.116.864-1.116.486 0 .882.378.882 1.134 0 .63-.36 1.098-.828 1.098zm5.904 8.892c1.53 0 2.664-1.314 2.664-2.934 0-1.656-1.17-2.934-2.718-2.934-1.494 0-2.664 1.116-2.664 2.916 0 1.854 1.206 2.952 2.718 2.952zm0-1.818c-.468 0-.9-.288-.9-1.134 0-.792.396-1.098.846-1.098.504 0 .9.378.9 1.116 0 .666-.36 1.116-.846 1.116zM273.378 13.24c2.816 0 4.272-1.456 4.272-4.352v-7.04h-2v6.896c0 1.872-.624 2.56-2.272 2.56-1.648 0-2.256-.672-2.256-2.56V1.848h-2v7.12c0 2.848 1.456 4.272 4.256 4.272zM284.175 4.952c-.96 0-1.824.32-2.384 1.072v-.912h-1.92V13h1.92V9.848c0-1.408 0-3.216 1.792-3.216 1.456 0 1.456 1.216 1.456 1.76V13h1.92V7.912c0-1.872-1.008-2.96-2.784-2.96zM291.507 13.16c1.488 0 3.072-.8 3.072-2.64 0-2.88-4.128-2.176-4.128-3.376 0-.368.384-.672 1.008-.672.864 0 1.296.512 1.568 1.008l1.488-.816c-.592-1.072-1.632-1.712-2.992-1.712-1.52 0-2.896.784-2.896 2.304 0 2.928 4.064 2.048 4.064 3.376 0 .416-.384.928-1.28.928-1.056 0-1.472-.72-1.68-1.296l-1.536.688c.384 1.2 1.648 2.208 3.312 2.208zM301.113 5.112v2.992c0 1.408 0 3.376-1.792 3.376-1.456 0-1.456-1.376-1.456-1.92V5.112h-1.92v4.928c0 1.68.832 3.12 2.816 3.12.928 0 1.792-.32 2.352-1.072V13h1.92V5.112h-1.92zM309.325 4.952a2.21 2.21 0 00-2.112 1.504V5.112h-1.936V13h1.92V9.032c0-1.488.576-2.208 1.744-2.208.384 0 .688.096.96.272l.928-1.696c-.512-.32-.976-.448-1.504-.448zM318.122 8.952c0-2.192-1.184-4-3.632-4-2.624 0-3.744 2.08-3.744 4.144 0 2.112 1.152 4.064 3.872 4.064 1.328 0 2.368-.464 3.232-1.424l-1.328-1.168c-.544.624-1.184.848-1.888.848-1.248 0-1.888-.688-1.968-1.728h5.408c.032-.256.048-.496.048-.736zm-5.472-.784c.112-.784.656-1.616 1.824-1.616 1.008 0 1.776.608 1.808 1.616h-3.632z" fill="#505050"/><path fill-rule="evenodd" clip-rule="evenodd" d="M246 439.524v63h-1v-63h1z" fill="#777"/><path d="M258.126 435.978v.576c0 1.008-.486 1.35-1.386 1.35h-1.422v2.142h2.808v8.478h2.718v-12.546h-2.718zM269.424 448.722c2.574 0 4.878-1.314 4.878-3.996 0-1.224-.45-2.286-1.512-3.024.594-.54.954-1.206.954-2.178 0-2.34-2.052-3.744-4.32-3.744-2.268 0-4.32 1.404-4.32 3.744 0 .972.36 1.638.954 2.178-1.062.738-1.512 1.8-1.512 3.024 0 2.682 2.304 3.996 4.878 3.996zm0-7.776c-.954 0-1.602-.468-1.602-1.242 0-.81.594-1.332 1.602-1.332s1.602.522 1.602 1.332c0 .774-.648 1.242-1.602 1.242zm0 5.202c-1.278 0-2.16-.576-2.16-1.692s.9-1.674 2.16-1.674c1.26 0 2.16.558 2.16 1.674 0 1.116-.882 1.692-2.16 1.692zM277.878 441.648c1.53 0 2.646-1.314 2.646-2.916 0-1.674-1.152-2.952-2.7-2.952-1.476 0-2.682 1.098-2.682 2.934 0 1.818 1.224 2.934 2.736 2.934zm-1.944 6.876h1.908l7.848-12.546h-1.908l-7.848 12.546zm1.944-8.694c-.504 0-.918-.306-.918-1.116 0-.828.396-1.116.864-1.116.486 0 .882.378.882 1.134 0 .63-.36 1.098-.828 1.098zm5.904 8.892c1.53 0 2.664-1.314 2.664-2.934 0-1.656-1.17-2.934-2.718-2.934-1.494 0-2.664 1.116-2.664 2.916 0 1.854 1.206 2.952 2.718 2.952zm0-1.818c-.468 0-.9-.288-.9-1.134 0-.792.396-1.098.846-1.098.504 0 .9.378.9 1.116 0 .666-.36 1.116-.846 1.116zM295.447 448.684c2.992 0 3.744-2.96 3.744-5.712 0-2.784-.784-5.776-3.856-5.776-3.376 0-3.76 3.376-3.76 5.76 0 2.352.416 5.728 3.872 5.728zm-.048-1.84c-1.808 0-1.856-2.064-1.856-3.888 0-1.888.048-3.92 1.792-3.92s1.792 2.016 1.792 3.904c0 1.792-.032 3.904-1.728 3.904zM302.982 442.364c1.296 0 2.24-1.12 2.24-2.56 0-1.472-.96-2.592-2.288-2.592-1.344 0-2.272 1.088-2.272 2.576s.944 2.576 2.32 2.576zm-1.36 6.16h1.36l6.72-11.152h-1.36l-6.72 11.152zm1.36-7.456c-.64 0-1.024-.496-1.024-1.28s.368-1.28.976-1.28c.592 0 .992.512.992 1.296 0 .736-.4 1.264-.944 1.264zm5.408 7.616c1.296 0 2.256-1.12 2.256-2.576s-.976-2.576-2.304-2.576c-1.344 0-2.256 1.088-2.256 2.56 0 1.504.928 2.592 2.304 2.592zm0-1.296c-.624 0-1.008-.496-1.008-1.296 0-.768.368-1.264.96-1.264.608 0 1.008.512 1.008 1.28 0 .752-.4 1.28-.96 1.28zM319.515 448.684c2.432 0 3.952-1.888 3.952-4.112 0-2.24-1.52-4.096-3.952-4.096-2.448 0-3.952 1.856-3.952 4.096 0 2.224 1.504 4.112 3.952 4.112zm0-1.68c-1.456 0-2.032-1.152-2.032-2.432 0-1.296.576-2.416 2.032-2.416s2.032 1.12 2.032 2.416c0 1.28-.576 2.432-2.032 2.432zM329.306 440.476c-.96 0-1.824.32-2.384 1.072v-.912h-1.92v7.888h1.92v-3.152c0-1.408 0-3.216 1.792-3.216 1.456 0 1.456 1.216 1.456 1.76v4.608h1.92v-5.088c0-1.872-1.008-2.96-2.784-2.96zM336.638 448.684c1.488 0 3.072-.8 3.072-2.64 0-2.88-4.128-2.176-4.128-3.376 0-.368.384-.672 1.008-.672.864 0 1.296.512 1.568 1.008l1.488-.816c-.592-1.072-1.632-1.712-2.992-1.712-1.52 0-2.896.784-2.896 2.304 0 2.928 4.064 2.048 4.064 3.376 0 .416-.384.928-1.28.928-1.056 0-1.472-.72-1.68-1.296l-1.536.688c.384 1.2 1.648 2.208 3.312 2.208zM341.282 439.148h2.016v-1.776h-2.016v1.776zm.048 9.376h1.92v-7.888h-1.92v7.888zM349.694 442.156v-1.52h-1.968v-2.944l-1.92 1.424v1.52h-1.28v1.52h1.28v4.16c0 1.68 1.12 2.368 2.448 2.368.48 0 .96-.08 1.44-.24v-1.536a3.316 3.316 0 01-.96.176c-.624 0-1.008-.288-1.008-.912v-4.016h1.968zM358.019 444.476c0-2.192-1.184-4-3.632-4-2.624 0-3.744 2.08-3.744 4.144 0 2.112 1.152 4.064 3.872 4.064 1.328 0 2.368-.464 3.232-1.424l-1.328-1.168c-.544.624-1.184.848-1.888.848-1.248 0-1.888-.688-1.968-1.728h5.408c.032-.256.048-.496.048-.736zm-5.472-.784c.112-.784.656-1.616 1.824-1.616 1.008 0 1.776.608 1.808 1.616h-3.632z" fill="#505050"/><path fill-rule="evenodd" clip-rule="evenodd" d="M421 289.524h53v1h-53v-1z" fill="#777"/><path d="M347.514 272.998v-7.02h-2.34l-5.994 8.028v1.584h5.616v2.934h2.718v-2.934h1.98v-2.592h-1.98zm-4.95 0l2.232-3.132v3.132h-2.232zM355.05 278.704c2.448 0 4.806-1.314 4.806-4.122 0-1.242-.522-2.34-1.872-2.934.792-.45 1.206-1.296 1.206-2.34 0-2.232-1.89-3.51-4.068-3.51-2.268 0-4.266 1.404-4.266 3.852l2.682.18c.018-.882.576-1.44 1.476-1.44.81 0 1.458.432 1.458 1.332 0 .612-.234 1.206-1.944 1.206v2.124c1.206 0 2.61-.09 2.61 1.404 0 1.26-1.026 1.656-1.998 1.656-1.224 0-2.196-.63-2.196-1.836l-2.7.162c0 2.916 2.322 4.266 4.806 4.266zM363.594 271.648c1.53 0 2.646-1.314 2.646-2.916 0-1.674-1.152-2.952-2.7-2.952-1.476 0-2.682 1.098-2.682 2.934 0 1.818 1.224 2.934 2.736 2.934zm-1.944 6.876h1.908l7.848-12.546h-1.908l-7.848 12.546zm1.944-8.694c-.504 0-.918-.306-.918-1.116 0-.828.396-1.116.864-1.116.486 0 .882.378.882 1.134 0 .63-.36 1.098-.828 1.098zm5.904 8.892c1.53 0 2.664-1.314 2.664-2.934 0-1.656-1.17-2.934-2.718-2.934-1.494 0-2.664 1.116-2.664 2.916 0 1.854 1.206 2.952 2.718 2.952zm0-1.818c-.468 0-.9-.288-.9-1.134 0-.792.396-1.098.846-1.098.504 0 .9.378.9 1.116 0 .666-.36 1.116-.846 1.116zM373.768 273.292h2.496v-2.304h-2.496v2.304zm0 5.232h2.496v-2.272h-2.496v2.272zM343.464 285.372v.672c0 .752-.352 1.072-1.12 1.072h-1.488v1.6h2.608v7.808h1.92v-11.152h-1.92zM353.143 296.684c2.992 0 3.744-2.96 3.744-5.712 0-2.784-.784-5.776-3.856-5.776-3.376 0-3.76 3.376-3.76 5.76 0 2.352.416 5.728 3.872 5.728zm-.048-1.84c-1.808 0-1.856-2.064-1.856-3.888 0-1.888.048-3.92 1.792-3.92s1.792 2.016 1.792 3.904c0 1.792-.032 3.904-1.728 3.904zM360.678 290.364c1.296 0 2.24-1.12 2.24-2.56 0-1.472-.96-2.592-2.288-2.592-1.344 0-2.272 1.088-2.272 2.576s.944 2.576 2.32 2.576zm-1.36 6.16h1.36l6.72-11.152h-1.36l-6.72 11.152zm1.36-7.456c-.64 0-1.024-.496-1.024-1.28s.368-1.28.976-1.28c.592 0 .992.512.992 1.296 0 .736-.4 1.264-.944 1.264zm5.408 7.616c1.296 0 2.256-1.12 2.256-2.576s-.976-2.576-2.304-2.576c-1.344 0-2.256 1.088-2.256 2.56 0 1.504.928 2.592 2.304 2.592zm0-1.296c-.624 0-1.008-.496-1.008-1.296 0-.768.368-1.264.96-1.264.608 0 1.008.512 1.008 1.28 0 .752-.4 1.28-.96 1.28zM373.119 292.508h4.608v-1.44h-4.608v1.44zM386.499 296.684c2.176 0 4.128-1.184 4.128-3.44 0-1.216-.56-2.352-1.888-2.768.944-.512 1.296-1.344 1.296-2.208 0-1.92-1.712-3.056-3.568-3.056-1.92 0-3.568 1.216-3.568 3.312l1.888.128c.016-1.008.688-1.6 1.712-1.6.896 0 1.616.464 1.616 1.456 0 .864-.56 1.424-2.112 1.424v1.52c1.2 0 2.704.048 2.704 1.584 0 1.28-1.024 1.808-2.16 1.808-1.312 0-2.288-.688-2.288-1.952l-1.904.112c0 2.464 1.92 3.68 4.144 3.68zM396.034 296.684c2.992 0 3.744-2.96 3.744-5.712 0-2.784-.784-5.776-3.856-5.776-3.376 0-3.76 3.376-3.76 5.76 0 2.352.416 5.728 3.872 5.728zm-.048-1.84c-1.808 0-1.856-2.064-1.856-3.888 0-1.888.048-3.92 1.792-3.92s1.792 2.016 1.792 3.904c0 1.792-.032 3.904-1.728 3.904zM403.569 290.364c1.296 0 2.24-1.12 2.24-2.56 0-1.472-.96-2.592-2.288-2.592-1.344 0-2.272 1.088-2.272 2.576s.944 2.576 2.32 2.576zm-1.36 6.16h1.36l6.72-11.152h-1.36l-6.72 11.152zm1.36-7.456c-.64 0-1.024-.496-1.024-1.28s.368-1.28.976-1.28c.592 0 .992.512.992 1.296 0 .736-.4 1.264-.944 1.264zm5.408 7.616c1.296 0 2.256-1.12 2.256-2.576s-.976-2.576-2.304-2.576c-1.344 0-2.256 1.088-2.256 2.56 0 1.504.928 2.592 2.304 2.592zm0-1.296c-.624 0-1.008-.496-1.008-1.296 0-.768.368-1.264.96-1.264.608 0 1.008.512 1.008 1.28 0 .752-.4 1.28-.96 1.28zM343.368 314.684c2.432 0 3.952-1.888 3.952-4.112 0-2.24-1.52-4.096-3.952-4.096-2.448 0-3.952 1.856-3.952 4.096 0 2.224 1.504 4.112 3.952 4.112zm0-1.68c-1.456 0-2.032-1.152-2.032-2.432 0-1.296.576-2.416 2.032-2.416s2.032 1.12 2.032 2.416c0 1.28-.576 2.432-2.032 2.432zM353.158 306.476c-.96 0-1.824.32-2.384 1.072v-.912h-1.92v7.888h1.92v-3.152c0-1.408 0-3.216 1.792-3.216 1.456 0 1.456 1.216 1.456 1.76v4.608h1.92v-5.088c0-1.872-1.008-2.96-2.784-2.96zM360.491 314.684c1.488 0 3.072-.8 3.072-2.64 0-2.88-4.128-2.176-4.128-3.376 0-.368.384-.672 1.008-.672.864 0 1.296.512 1.568 1.008l1.488-.816c-.592-1.072-1.632-1.712-2.992-1.712-1.52 0-2.896.784-2.896 2.304 0 2.928 4.064 2.048 4.064 3.376 0 .416-.384.928-1.28.928-1.056 0-1.472-.72-1.68-1.296l-1.536.688c.384 1.2 1.648 2.208 3.312 2.208zM365.134 305.148h2.016v-1.776h-2.016v1.776zm.048 9.376h1.92v-7.888h-1.92v7.888zM373.547 308.156v-1.52h-1.968v-2.944l-1.92 1.424v1.52h-1.28v1.52h1.28v4.16c0 1.68 1.12 2.368 2.448 2.368.48 0 .96-.08 1.44-.24v-1.536a3.316 3.316 0 01-.96.176c-.624 0-1.008-.288-1.008-.912v-4.016h1.968zM381.871 310.476c0-2.192-1.184-4-3.632-4-2.624 0-3.744 2.08-3.744 4.144 0 2.112 1.152 4.064 3.872 4.064 1.328 0 2.368-.464 3.232-1.424l-1.328-1.168c-.544.624-1.184.848-1.888.848-1.248 0-1.888-.688-1.968-1.728h5.408c.032-.256.048-.496.048-.736zm-5.472-.784c.112-.784.656-1.616 1.824-1.616 1.008 0 1.776.608 1.808 1.616h-3.632z" fill="#505050"/><path fill-rule="evenodd" clip-rule="evenodd" d="M74 379.524h53v1H74v-1z" fill="#777"/><path d="M142.824 362.978v.576c0 1.008-.486 1.35-1.386 1.35h-1.422v2.142h2.808v8.478h2.718v-12.546h-2.718zM154.05 375.704c2.448 0 4.806-1.314 4.806-4.122 0-1.242-.522-2.34-1.872-2.934.792-.45 1.206-1.296 1.206-2.34 0-2.232-1.89-3.51-4.068-3.51-2.268 0-4.266 1.404-4.266 3.852l2.682.18c.018-.882.576-1.44 1.476-1.44.81 0 1.458.432 1.458 1.332 0 .612-.234 1.206-1.944 1.206v2.124c1.206 0 2.61-.09 2.61 1.404 0 1.26-1.026 1.656-1.998 1.656-1.224 0-2.196-.63-2.196-1.836l-2.7.162c0 2.916 2.322 4.266 4.806 4.266zM162.594 368.648c1.53 0 2.646-1.314 2.646-2.916 0-1.674-1.152-2.952-2.7-2.952-1.476 0-2.682 1.098-2.682 2.934 0 1.818 1.224 2.934 2.736 2.934zm-1.944 6.876h1.908l7.848-12.546h-1.908l-7.848 12.546zm1.944-8.694c-.504 0-.918-.306-.918-1.116 0-.828.396-1.116.864-1.116.486 0 .882.378.882 1.134 0 .63-.36 1.098-.828 1.098zm5.904 8.892c1.53 0 2.664-1.314 2.664-2.934 0-1.656-1.17-2.934-2.718-2.934-1.494 0-2.664 1.116-2.664 2.916 0 1.854 1.206 2.952 2.718 2.952zm0-1.818c-.468 0-.9-.288-.9-1.134 0-.792.396-1.098.846-1.098.504 0 .9.378.9 1.116 0 .666-.36 1.116-.846 1.116zM172.768 370.292h2.496v-2.304h-2.496v2.304zm0 5.232h2.496v-2.272h-2.496v2.272zM142.464 382.372v.672c0 .752-.352 1.072-1.12 1.072h-1.488v1.6h2.608v7.808h1.92v-11.152h-1.92zM152.143 393.684c2.992 0 3.744-2.96 3.744-5.712 0-2.784-.784-5.776-3.856-5.776-3.376 0-3.76 3.376-3.76 5.76 0 2.352.416 5.728 3.872 5.728zm-.048-1.84c-1.808 0-1.856-2.064-1.856-3.888 0-1.888.048-3.92 1.792-3.92s1.792 2.016 1.792 3.904c0 1.792-.032 3.904-1.728 3.904zM161.518 393.684c2.992 0 3.744-2.96 3.744-5.712 0-2.784-.784-5.776-3.856-5.776-3.376 0-3.76 3.376-3.76 5.76 0 2.352.416 5.728 3.872 5.728zm-.048-1.84c-1.808 0-1.856-2.064-1.856-3.888 0-1.888.048-3.92 1.792-3.92s1.792 2.016 1.792 3.904c0 1.792-.032 3.904-1.728 3.904zM169.053 387.364c1.296 0 2.24-1.12 2.24-2.56 0-1.472-.96-2.592-2.288-2.592-1.344 0-2.272 1.088-2.272 2.576s.944 2.576 2.32 2.576zm-1.36 6.16h1.36l6.72-11.152h-1.36l-6.72 11.152zm1.36-7.456c-.64 0-1.024-.496-1.024-1.28s.368-1.28.976-1.28c.592 0 .992.512.992 1.296 0 .736-.4 1.264-.944 1.264zm5.408 7.616c1.296 0 2.256-1.12 2.256-2.576s-.976-2.576-2.304-2.576c-1.344 0-2.256 1.088-2.256 2.56 0 1.504.928 2.592 2.304 2.592zm0-1.296c-.624 0-1.008-.496-1.008-1.296 0-.768.368-1.264.96-1.264.608 0 1.008.512 1.008 1.28 0 .752-.4 1.28-.96 1.28zM185.587 393.684c2.432 0 3.952-1.888 3.952-4.112 0-2.24-1.52-4.096-3.952-4.096-2.448 0-3.952 1.856-3.952 4.096 0 2.224 1.504 4.112 3.952 4.112zm0-1.68c-1.456 0-2.032-1.152-2.032-2.432 0-1.296.576-2.416 2.032-2.416s2.032 1.12 2.032 2.416c0 1.28-.576 2.432-2.032 2.432zM195.377 385.476c-.96 0-1.824.32-2.384 1.072v-.912h-1.92v7.888h1.92v-3.152c0-1.408 0-3.216 1.792-3.216 1.456 0 1.456 1.216 1.456 1.76v4.608h1.92v-5.088c0-1.872-1.008-2.96-2.784-2.96zM202.709 393.684c1.488 0 3.072-.8 3.072-2.64 0-2.88-4.128-2.176-4.128-3.376 0-.368.384-.672 1.008-.672.864 0 1.296.512 1.568 1.008l1.488-.816c-.592-1.072-1.632-1.712-2.992-1.712-1.52 0-2.896.784-2.896 2.304 0 2.928 4.064 2.048 4.064 3.376 0 .416-.384.928-1.28.928-1.056 0-1.472-.72-1.68-1.296l-1.536.688c.384 1.2 1.648 2.208 3.312 2.208zM207.353 384.148h2.016v-1.776h-2.016v1.776zm.048 9.376h1.92v-7.888h-1.92v7.888zM215.765 387.156v-1.52h-1.968v-2.944l-1.92 1.424v1.52h-1.28v1.52h1.28v4.16c0 1.68 1.12 2.368 2.448 2.368.48 0 .96-.08 1.44-.24v-1.536a3.316 3.316 0 01-.96.176c-.624 0-1.008-.288-1.008-.912v-4.016h1.968zM224.09 389.476c0-2.192-1.184-4-3.632-4-2.624 0-3.744 2.08-3.744 4.144 0 2.112 1.152 4.064 3.872 4.064 1.328 0 2.368-.464 3.232-1.424l-1.328-1.168c-.544.624-1.184.848-1.888.848-1.248 0-1.888-.688-1.968-1.728h5.408c.032-.256.048-.496.048-.736zm-5.472-.784c.112-.784.656-1.616 1.824-1.616 1.008 0 1.776.608 1.808 1.616h-3.632z" fill="#505050"/><path fill-rule="evenodd" clip-rule="evenodd" d="M51 258.524h53v1H51v-1z" fill="#777"/><path d="M119.824 241.978v.576c0 1.008-.486 1.35-1.386 1.35h-1.422v2.142h2.808v8.478h2.718v-12.546h-2.718zM130.582 241.978v.576c0 1.008-.486 1.35-1.386 1.35h-1.422v2.142h2.808v8.478h2.718v-12.546h-2.718zM139.594 247.648c1.53 0 2.646-1.314 2.646-2.916 0-1.674-1.152-2.952-2.7-2.952-1.476 0-2.682 1.098-2.682 2.934 0 1.818 1.224 2.934 2.736 2.934zm-1.944 6.876h1.908l7.848-12.546h-1.908l-7.848 12.546zm1.944-8.694c-.504 0-.918-.306-.918-1.116 0-.828.396-1.116.864-1.116.486 0 .882.378.882 1.134 0 .63-.36 1.098-.828 1.098zm5.904 8.892c1.53 0 2.664-1.314 2.664-2.934 0-1.656-1.17-2.934-2.718-2.934-1.494 0-2.664 1.116-2.664 2.916 0 1.854 1.206 2.952 2.718 2.952zm0-1.818c-.468 0-.9-.288-.9-1.134 0-.792.396-1.098.846-1.098.504 0 .9.378.9 1.116 0 .666-.36 1.116-.846 1.116zM149.768 249.292h2.496v-2.304h-2.496v2.304zm0 5.232h2.496v-2.272h-2.496v2.272zM115.688 261.372v1.84h5.616l-4.72 9.312h2.208l4.944-10.128v-1.024h-8.048zM129.143 272.684c2.992 0 3.744-2.96 3.744-5.712 0-2.784-.784-5.776-3.856-5.776-3.376 0-3.76 3.376-3.76 5.76 0 2.352.416 5.728 3.872 5.728zm-.048-1.84c-1.808 0-1.856-2.064-1.856-3.888 0-1.888.048-3.92 1.792-3.92s1.792 2.016 1.792 3.904c0 1.792-.032 3.904-1.728 3.904zM136.678 266.364c1.296 0 2.24-1.12 2.24-2.56 0-1.472-.96-2.592-2.288-2.592-1.344 0-2.272 1.088-2.272 2.576s.944 2.576 2.32 2.576zm-1.36 6.16h1.36l6.72-11.152h-1.36l-6.72 11.152zm1.36-7.456c-.64 0-1.024-.496-1.024-1.28s.368-1.28.976-1.28c.592 0 .992.512.992 1.296 0 .736-.4 1.264-.944 1.264zm5.408 7.616c1.296 0 2.256-1.12 2.256-2.576s-.976-2.576-2.304-2.576c-1.344 0-2.256 1.088-2.256 2.56 0 1.504.928 2.592 2.304 2.592zm0-1.296c-.624 0-1.008-.496-1.008-1.296 0-.768.368-1.264.96-1.264.608 0 1.008.512 1.008 1.28 0 .752-.4 1.28-.96 1.28zM146.041 268.508h4.608v-1.44h-4.608v1.44zM156.406 261.212c-2.224 0-4.048 1.584-4.048 3.888 0 2.176 1.472 3.84 3.76 3.84.192 0 .368-.016.56-.032l-2.352 3.616h2.208l3.328-5.36c.4-.64.624-1.36.624-2.08 0-2.288-1.84-3.872-4.08-3.872zm0 5.936c-1.168 0-2.096-.768-2.096-2.048s.928-2.048 2.096-2.048c1.184 0 2.112.768 2.112 2.048s-.928 2.048-2.112 2.048zM165.877 272.684c2.992 0 3.744-2.96 3.744-5.712 0-2.784-.784-5.776-3.856-5.776-3.376 0-3.76 3.376-3.76 5.76 0 2.352.416 5.728 3.872 5.728zm-.048-1.84c-1.808 0-1.856-2.064-1.856-3.888 0-1.888.048-3.92 1.792-3.92s1.792 2.016 1.792 3.904c0 1.792-.032 3.904-1.728 3.904zM173.412 266.364c1.296 0 2.24-1.12 2.24-2.56 0-1.472-.96-2.592-2.288-2.592-1.344 0-2.272 1.088-2.272 2.576s.944 2.576 2.32 2.576zm-1.36 6.16h1.36l6.72-11.152h-1.36l-6.72 11.152zm1.36-7.456c-.64 0-1.024-.496-1.024-1.28s.368-1.28.976-1.28c.592 0 .992.512.992 1.296 0 .736-.4 1.264-.944 1.264zm5.408 7.616c1.296 0 2.256-1.12 2.256-2.576s-.976-2.576-2.304-2.576c-1.344 0-2.256 1.088-2.256 2.56 0 1.504.928 2.592 2.304 2.592zm0-1.296c-.624 0-1.008-.496-1.008-1.296 0-.768.368-1.264.96-1.264.608 0 1.008.512 1.008 1.28 0 .752-.4 1.28-.96 1.28zM119.368 290.684c2.432 0 3.952-1.888 3.952-4.112 0-2.24-1.52-4.096-3.952-4.096-2.448 0-3.952 1.856-3.952 4.096 0 2.224 1.504 4.112 3.952 4.112zm0-1.68c-1.456 0-2.032-1.152-2.032-2.432 0-1.296.576-2.416 2.032-2.416s2.032 1.12 2.032 2.416c0 1.28-.576 2.432-2.032 2.432zM129.158 282.476c-.96 0-1.824.32-2.384 1.072v-.912h-1.92v7.888h1.92v-3.152c0-1.408 0-3.216 1.792-3.216 1.456 0 1.456 1.216 1.456 1.76v4.608h1.92v-5.088c0-1.872-1.008-2.96-2.784-2.96zM136.491 290.684c1.488 0 3.072-.8 3.072-2.64 0-2.88-4.128-2.176-4.128-3.376 0-.368.384-.672 1.008-.672.864 0 1.296.512 1.568 1.008l1.488-.816c-.592-1.072-1.632-1.712-2.992-1.712-1.52 0-2.896.784-2.896 2.304 0 2.928 4.064 2.048 4.064 3.376 0 .416-.384.928-1.28.928-1.056 0-1.472-.72-1.68-1.296l-1.536.688c.384 1.2 1.648 2.208 3.312 2.208zM141.135 281.148h2.016v-1.776h-2.016v1.776zm.048 9.376h1.92v-7.888h-1.92v7.888zM149.547 284.156v-1.52h-1.968v-2.944l-1.92 1.424v1.52h-1.28v1.52h1.28v4.16c0 1.68 1.12 2.368 2.448 2.368.48 0 .96-.08 1.44-.24v-1.536a3.316 3.316 0 01-.96.176c-.624 0-1.008-.288-1.008-.912v-4.016h1.968zM157.871 286.476c0-2.192-1.184-4-3.632-4-2.624 0-3.744 2.08-3.744 4.144 0 2.112 1.152 4.064 3.872 4.064 1.328 0 2.368-.464 3.232-1.424l-1.328-1.168c-.544.624-1.184.848-1.888.848-1.248 0-1.888-.688-1.968-1.728h5.408c.032-.256.048-.496.048-.736zm-5.472-.784c.112-.784.656-1.616 1.824-1.616 1.008 0 1.776.608 1.808 1.616h-3.632z" fill="#505050"/><path fill-rule="evenodd" clip-rule="evenodd" d="M121 153.524h53v1h-53v-1z" fill="#777"/><path d="M189.824 136.978v.576c0 1.008-.486 1.35-1.386 1.35h-1.422v2.142h2.808v8.478h2.718v-12.546h-2.718zM200.582 136.978v.576c0 1.008-.486 1.35-1.386 1.35h-1.422v2.142h2.808v8.478h2.718v-12.546h-2.718zM209.594 142.648c1.53 0 2.646-1.314 2.646-2.916 0-1.674-1.152-2.952-2.7-2.952-1.476 0-2.682 1.098-2.682 2.934 0 1.818 1.224 2.934 2.736 2.934zm-1.944 6.876h1.908l7.848-12.546h-1.908l-7.848 12.546zm1.944-8.694c-.504 0-.918-.306-.918-1.116 0-.828.396-1.116.864-1.116.486 0 .882.378.882 1.134 0 .63-.36 1.098-.828 1.098zm5.904 8.892c1.53 0 2.664-1.314 2.664-2.934 0-1.656-1.17-2.934-2.718-2.934-1.494 0-2.664 1.116-2.664 2.916 0 1.854 1.206 2.952 2.718 2.952zm0-1.818c-.468 0-.9-.288-.9-1.134 0-.792.396-1.098.846-1.098.504 0 .9.378.9 1.116 0 .666-.36 1.116-.846 1.116zM219.768 144.292h2.496v-2.304h-2.496v2.304zm0 5.232h2.496v-2.272h-2.496v2.272zM192.568 162.612v-6.24h-2.08l-5.328 7.136v1.408h4.992v2.608h2.416v-2.608h1.76v-2.304h-1.76zm-4.4 0l1.984-2.784v2.784h-1.984zM199.331 167.684c2.992 0 3.744-2.96 3.744-5.712 0-2.784-.784-5.776-3.856-5.776-3.376 0-3.76 3.376-3.76 5.76 0 2.352.416 5.728 3.872 5.728zm-.048-1.84c-1.808 0-1.856-2.064-1.856-3.888 0-1.888.048-3.92 1.792-3.92s1.792 2.016 1.792 3.904c0 1.792-.032 3.904-1.728 3.904zM206.866 161.364c1.296 0 2.24-1.12 2.24-2.56 0-1.472-.96-2.592-2.288-2.592-1.344 0-2.272 1.088-2.272 2.576s.944 2.576 2.32 2.576zm-1.36 6.16h1.36l6.72-11.152h-1.36l-6.72 11.152zm1.36-7.456c-.64 0-1.024-.496-1.024-1.28s.368-1.28.976-1.28c.592 0 .992.512.992 1.296 0 .736-.4 1.264-.944 1.264zm5.408 7.616c1.296 0 2.256-1.12 2.256-2.576s-.976-2.576-2.304-2.576c-1.344 0-2.256 1.088-2.256 2.56 0 1.504.928 2.592 2.304 2.592zm0-1.296c-.624 0-1.008-.496-1.008-1.296 0-.768.368-1.264.96-1.264.608 0 1.008.512 1.008 1.28 0 .752-.4 1.28-.96 1.28zM216.229 163.508h4.608v-1.44h-4.608v1.44zM226.93 159.956c-.192 0-.368.016-.56.032l2.352-3.616h-2.208l-3.328 5.36c-.4.64-.624 1.36-.624 2.08 0 2.288 1.84 3.872 4.08 3.872 2.224 0 4.048-1.584 4.048-3.888 0-2.176-1.472-3.84-3.76-3.84zm-.288 5.888c-1.184 0-2.112-.768-2.112-2.048s.928-2.048 2.112-2.048c1.168 0 2.096.768 2.096 2.048s-.928 2.048-2.096 2.048zM236.065 167.684c2.992 0 3.744-2.96 3.744-5.712 0-2.784-.784-5.776-3.856-5.776-3.376 0-3.76 3.376-3.76 5.76 0 2.352.416 5.728 3.872 5.728zm-.048-1.84c-1.808 0-1.856-2.064-1.856-3.888 0-1.888.048-3.92 1.792-3.92s1.792 2.016 1.792 3.904c0 1.792-.032 3.904-1.728 3.904zM243.6 161.364c1.296 0 2.24-1.12 2.24-2.56 0-1.472-.96-2.592-2.288-2.592-1.344 0-2.272 1.088-2.272 2.576s.944 2.576 2.32 2.576zm-1.36 6.16h1.36l6.72-11.152h-1.36l-6.72 11.152zm1.36-7.456c-.64 0-1.024-.496-1.024-1.28s.368-1.28.976-1.28c.592 0 .992.512.992 1.296 0 .736-.4 1.264-.944 1.264zm5.408 7.616c1.296 0 2.256-1.12 2.256-2.576s-.976-2.576-2.304-2.576c-1.344 0-2.256 1.088-2.256 2.56 0 1.504.928 2.592 2.304 2.592zm0-1.296c-.624 0-1.008-.496-1.008-1.296 0-.768.368-1.264.96-1.264.608 0 1.008.512 1.008 1.28 0 .752-.4 1.28-.96 1.28zM189.368 185.684c2.432 0 3.952-1.888 3.952-4.112 0-2.24-1.52-4.096-3.952-4.096-2.448 0-3.952 1.856-3.952 4.096 0 2.224 1.504 4.112 3.952 4.112zm0-1.68c-1.456 0-2.032-1.152-2.032-2.432 0-1.296.576-2.416 2.032-2.416s2.032 1.12 2.032 2.416c0 1.28-.576 2.432-2.032 2.432zM199.158 177.476c-.96 0-1.824.32-2.384 1.072v-.912h-1.92v7.888h1.92v-3.152c0-1.408 0-3.216 1.792-3.216 1.456 0 1.456 1.216 1.456 1.76v4.608h1.92v-5.088c0-1.872-1.008-2.96-2.784-2.96zM206.491 185.684c1.488 0 3.072-.8 3.072-2.64 0-2.88-4.128-2.176-4.128-3.376 0-.368.384-.672 1.008-.672.864 0 1.296.512 1.568 1.008l1.488-.816c-.592-1.072-1.632-1.712-2.992-1.712-1.52 0-2.896.784-2.896 2.304 0 2.928 4.064 2.048 4.064 3.376 0 .416-.384.928-1.28.928-1.056 0-1.472-.72-1.68-1.296l-1.536.688c.384 1.2 1.648 2.208 3.312 2.208zM211.135 176.148h2.016v-1.776h-2.016v1.776zm.048 9.376h1.92v-7.888h-1.92v7.888zM219.547 179.156v-1.52h-1.968v-2.944l-1.92 1.424v1.52h-1.28v1.52h1.28v4.16c0 1.68 1.12 2.368 2.448 2.368.48 0 .96-.08 1.44-.24v-1.536a3.316 3.316 0 01-.96.176c-.624 0-1.008-.288-1.008-.912v-4.016h1.968zM227.871 181.476c0-2.192-1.184-4-3.632-4-2.624 0-3.744 2.08-3.744 4.144 0 2.112 1.152 4.064 3.872 4.064 1.328 0 2.368-.464 3.232-1.424l-1.328-1.168c-.544.624-1.184.848-1.888.848-1.248 0-1.888-.688-1.968-1.728h5.408c.032-.256.048-.496.048-.736zm-5.472-.784c.112-.784.656-1.616 1.824-1.616 1.008 0 1.776.608 1.808 1.616h-3.632z" fill="#505050"/></svg>