<svg width="662" height="209" fill="none" xmlns="http://www.w3.org/2000/svg"><path d="M67.582 208.14c2.619 0 3.277-2.59 3.277-4.998 0-2.436-.686-5.054-3.374-5.054-2.954 0-3.29 2.954-3.29 5.04 0 2.058.364 5.012 3.388 5.012zm-.041-1.61c-1.582 0-1.624-1.806-1.624-3.402 0-1.652.041-3.43 1.567-3.43s1.569 1.764 1.569 3.416c0 1.568-.028 3.416-1.513 3.416zM74.176 202.61c1.134 0 1.96-.98 1.96-2.24 0-1.288-.84-2.268-2.002-2.268-1.176 0-1.988.952-1.988 2.254s.826 2.254 2.03 2.254zm-1.19 5.39h1.19l5.88-9.758h-1.19L72.986 208zm1.19-6.524c-.56 0-.896-.434-.896-1.12 0-.686.322-1.12.854-1.12.518 0 .868.448.868 1.134 0 .644-.35 1.106-.826 1.106zm4.732 6.664c1.134 0 1.974-.98 1.974-2.254s-.854-2.254-2.016-2.254c-1.176 0-1.974.952-1.974 2.24 0 1.316.812 2.268 2.016 2.268zm0-1.134c-.546 0-.882-.434-.882-1.134 0-.672.322-1.106.84-1.106.532 0 .882.448.882 1.12 0 .658-.35 1.12-.84 1.12zM124.451 201.294c-.448 0-.98.084-1.512.42l.35-1.862h4.046v-1.61h-5.432l-.938 5.138 1.582.392c.322-.504.854-.91 1.68-.91 1.232 0 1.764.826 1.764 1.736 0 .952-.574 1.932-1.806 1.932-1.162 0-1.764-.826-1.862-1.624l-1.652.28c.238 1.638 1.652 2.954 3.528 2.954 2.086 0 3.57-1.68 3.57-3.542 0-1.778-1.358-3.304-3.318-3.304zM130.918 202.61c1.134 0 1.96-.98 1.96-2.24 0-1.288-.84-2.268-2.002-2.268-1.176 0-1.988.952-1.988 2.254s.826 2.254 2.03 2.254zm-1.19 5.39h1.19l5.88-9.758h-1.19l-5.88 9.758zm1.19-6.524c-.56 0-.896-.434-.896-1.12 0-.686.322-1.12.854-1.12.518 0 .868.448.868 1.134 0 .644-.35 1.106-.826 1.106zm4.732 6.664c1.134 0 1.974-.98 1.974-2.254s-.854-2.254-2.016-2.254c-1.176 0-1.974.952-1.974 2.24 0 1.316.812 2.268 2.016 2.268zm0-1.134c-.546 0-.882-.434-.882-1.134 0-.672.322-1.106.84-1.106.532 0 .882.448.882 1.12 0 .658-.35 1.12-.84 1.12zM177.852 198.242v.588c0 .658-.308.938-.98.938h-1.302v1.4h2.282V208h1.68v-9.758h-1.68zM186.321 208.14c2.618 0 3.276-2.59 3.276-4.998 0-2.436-.686-5.054-3.374-5.054-2.954 0-3.29 2.954-3.29 5.04 0 2.058.364 5.012 3.388 5.012zm-.042-1.61c-1.582 0-1.624-1.806-1.624-3.402 0-1.652.042-3.43 1.568-3.43s1.568 1.764 1.568 3.416c0 1.568-.028 3.416-1.512 3.416zM192.914 202.61c1.134 0 1.96-.98 1.96-2.24 0-1.288-.84-2.268-2.002-2.268-1.176 0-1.988.952-1.988 2.254s.826 2.254 2.03 2.254zm-1.19 5.39h1.19l5.88-9.758h-1.19l-5.88 9.758zm1.19-6.524c-.56 0-.896-.434-.896-1.12 0-.686.322-1.12.854-1.12.518 0 .868.448.868 1.134 0 .644-.35 1.106-.826 1.106zm4.732 6.664c1.134 0 1.974-.98 1.974-2.254s-.854-2.254-2.016-2.254c-1.176 0-1.974.952-1.974 2.24 0 1.316.812 2.268 2.016 2.268zm0-1.134c-.546 0-.882-.434-.882-1.134 0-.672.322-1.106.84-1.106.532 0 .882.448.882 1.12 0 .658-.35 1.12-.84 1.12zM235.645 198.242v.588c0 .658-.308.938-.98.938h-1.302v1.4h2.282V208h1.68v-9.758h-1.68zM244.24 201.294c-.448 0-.98.084-1.512.42l.35-1.862h4.046v-1.61h-5.432l-.938 5.138 1.582.392c.322-.504.854-.91 1.68-.91 1.232 0 1.764.826 1.764 1.736 0 .952-.574 1.932-1.806 1.932-1.162 0-1.764-.826-1.862-1.624l-1.652.28c.238 1.638 1.652 2.954 3.528 2.954 2.086 0 3.57-1.68 3.57-3.542 0-1.778-1.358-3.304-3.318-3.304zM250.707 202.61c1.134 0 1.96-.98 1.96-2.24 0-1.288-.84-2.268-2.002-2.268-1.176 0-1.988.952-1.988 2.254s.826 2.254 2.03 2.254zm-1.19 5.39h1.19l5.88-9.758h-1.19l-5.88 9.758zm1.19-6.524c-.56 0-.896-.434-.896-1.12 0-.686.322-1.12.854-1.12.518 0 .868.448.868 1.134 0 .644-.35 1.106-.826 1.106zm4.732 6.664c1.134 0 1.974-.98 1.974-2.254s-.854-2.254-2.016-2.254c-1.176 0-1.974.952-1.974 2.24 0 1.316.812 2.268 2.016 2.268zm0-1.134c-.546 0-.882-.434-.882-1.134 0-.672.322-1.106.84-1.106.532 0 .882.448.882 1.12 0 .658-.35 1.12-.84 1.12zM293.102 206.418c1.68-1.036 3.556-3.08 3.556-5.278 0-1.82-1.274-3.024-3.066-3.024-2.17 0-3.346 1.764-3.346 3.556l1.652.126c.042-1.008.434-2.058 1.666-2.058.966 0 1.414.644 1.414 1.526 0 2.282-3.024 4.298-4.746 5.348V208h6.832v-1.582h-3.962zM301.907 208.14c2.618 0 3.276-2.59 3.276-4.998 0-2.436-.686-5.054-3.374-5.054-2.954 0-3.29 2.954-3.29 5.04 0 2.058.364 5.012 3.388 5.012zm-.042-1.61c-1.582 0-1.624-1.806-1.624-3.402 0-1.652.042-3.43 1.568-3.43s1.568 1.764 1.568 3.416c0 1.568-.028 3.416-1.512 3.416zM308.501 202.61c1.134 0 1.96-.98 1.96-2.24 0-1.288-.84-2.268-2.002-2.268-1.176 0-1.988.952-1.988 2.254s.826 2.254 2.03 2.254zm-1.19 5.39h1.19l5.88-9.758h-1.19l-5.88 9.758zm1.19-6.524c-.56 0-.896-.434-.896-1.12 0-.686.322-1.12.854-1.12.518 0 .868.448.868 1.134 0 .644-.35 1.106-.826 1.106zm4.732 6.664c1.134 0 1.974-.98 1.974-2.254s-.854-2.254-2.016-2.254c-1.176 0-1.974.952-1.974 2.24 0 1.316.812 2.268 2.016 2.268zm0-1.134c-.546 0-.882-.434-.882-1.134 0-.672.322-1.106.84-1.106.532 0 .882.448.882 1.12 0 .658-.35 1.12-.84 1.12zM350.895 206.418c1.68-1.036 3.556-3.08 3.556-5.278 0-1.82-1.274-3.024-3.066-3.024-2.17 0-3.346 1.764-3.346 3.556l1.652.126c.042-1.008.434-2.058 1.666-2.058.966 0 1.414.644 1.414 1.526 0 2.282-3.024 4.298-4.746 5.348V208h6.832v-1.582h-3.962zM359.827 201.294c-.448 0-.98.084-1.512.42l.35-1.862h4.046v-1.61h-5.432l-.938 5.138 1.582.392c.322-.504.854-.91 1.68-.91 1.232 0 1.764.826 1.764 1.736 0 .952-.574 1.932-1.806 1.932-1.162 0-1.764-.826-1.862-1.624l-1.652.28c.238 1.638 1.652 2.954 3.528 2.954 2.086 0 3.57-1.68 3.57-3.542 0-1.778-1.358-3.304-3.318-3.304zM366.294 202.61c1.134 0 1.96-.98 1.96-2.24 0-1.288-.84-2.268-2.002-2.268-1.176 0-1.988.952-1.988 2.254s.826 2.254 2.03 2.254zm-1.19 5.39h1.19l5.88-9.758h-1.19l-5.88 9.758zm1.19-6.524c-.56 0-.896-.434-.896-1.12 0-.686.322-1.12.854-1.12.518 0 .868.448.868 1.134 0 .644-.35 1.106-.826 1.106zm4.732 6.664c1.134 0 1.974-.98 1.974-2.254s-.854-2.254-2.016-2.254c-1.176 0-1.974.952-1.974 2.24 0 1.316.812 2.268 2.016 2.268zm0-1.134c-.546 0-.882-.434-.882-1.134 0-.672.322-1.106.84-1.106.532 0 .882.448.882 1.12 0 .658-.35 1.12-.84 1.12zM409.15 208.14c1.904 0 3.612-1.036 3.612-3.01 0-1.064-.49-2.058-1.652-2.422.826-.448 1.134-1.176 1.134-1.932 0-1.68-1.498-2.674-3.122-2.674-1.68 0-3.122 1.064-3.122 2.898l1.652.112c.014-.882.602-1.4 1.498-1.4.784 0 1.414.406 1.414 1.274 0 .756-.49 1.246-1.848 1.246v1.33c1.05 0 2.366.042 2.366 1.386 0 1.12-.896 1.582-1.89 1.582-1.148 0-2.002-.602-2.002-1.708l-1.666.098c0 2.156 1.68 3.22 3.626 3.22zM417.494 208.14c2.618 0 3.276-2.59 3.276-4.998 0-2.436-.686-5.054-3.374-5.054-2.954 0-3.29 2.954-3.29 5.04 0 2.058.364 5.012 3.388 5.012zm-.042-1.61c-1.582 0-1.624-1.806-1.624-3.402 0-1.652.042-3.43 1.568-3.43s1.568 1.764 1.568 3.416c0 1.568-.028 3.416-1.512 3.416zM424.087 202.61c1.134 0 1.96-.98 1.96-2.24 0-1.288-.84-2.268-2.002-2.268-1.176 0-1.988.952-1.988 2.254s.826 2.254 2.03 2.254zm-1.19 5.39h1.19l5.88-9.758h-1.19l-5.88 9.758zm1.19-6.524c-.56 0-.896-.434-.896-1.12 0-.686.322-1.12.854-1.12.518 0 .868.448.868 1.134 0 .644-.35 1.106-.826 1.106zm4.732 6.664c1.134 0 1.974-.98 1.974-2.254s-.854-2.254-2.016-2.254c-1.176 0-1.974.952-1.974 2.24 0 1.316.812 2.268 2.016 2.268zm0-1.134c-.546 0-.882-.434-.882-1.134 0-.672.322-1.106.84-1.106.532 0 .882.448.882 1.12 0 .658-.35 1.12-.84 1.12zM466.944 208.14c1.904 0 3.612-1.036 3.612-3.01 0-1.064-.49-2.058-1.652-2.422.826-.448 1.134-1.176 1.134-1.932 0-1.68-1.498-2.674-3.122-2.674-1.68 0-3.122 1.064-3.122 2.898l1.652.112c.014-.882.602-1.4 1.498-1.4.784 0 1.414.406 1.414 1.274 0 .756-.49 1.246-1.848 1.246v1.33c1.05 0 2.366.042 2.366 1.386 0 1.12-.896 1.582-1.89 1.582-1.148 0-2.002-.602-2.002-1.708l-1.666.098c0 2.156 1.68 3.22 3.626 3.22zM475.413 201.294c-.448 0-.98.084-1.512.42l.35-1.862h4.046v-1.61h-5.432l-.938 5.138 1.582.392c.322-.504.854-.91 1.68-.91 1.232 0 1.764.826 1.764 1.736 0 .952-.574 1.932-1.806 1.932-1.162 0-1.764-.826-1.862-1.624l-1.652.28c.238 1.638 1.652 2.954 3.528 2.954 2.086 0 3.57-1.68 3.57-3.542 0-1.778-1.358-3.304-3.318-3.304zM481.88 202.61c1.134 0 1.96-.98 1.96-2.24 0-1.288-.84-2.268-2.002-2.268-1.176 0-1.988.952-1.988 2.254s.826 2.254 2.03 2.254zm-1.19 5.39h1.19l5.88-9.758h-1.19L480.69 208zm1.19-6.524c-.56 0-.896-.434-.896-1.12 0-.686.322-1.12.854-1.12.518 0 .868.448.868 1.134 0 .644-.35 1.106-.826 1.106zm4.732 6.664c1.134 0 1.974-.98 1.974-2.254s-.854-2.254-2.016-2.254c-1.176 0-1.974.952-1.974 2.24 0 1.316.812 2.268 2.016 2.268zm0-1.134c-.546 0-.882-.434-.882-1.134 0-.672.322-1.106.84-1.106.532 0 .882.448.882 1.12 0 .658-.35 1.12-.84 1.12zM527.131 204.094v-5.852h-1.47l-4.774 6.454v1.008h4.564V208h1.68v-2.296h1.554v-1.61h-1.554zm-4.116 0l2.436-3.43v3.43h-2.436zM533.08 208.14c2.618 0 3.276-2.59 3.276-4.998 0-2.436-.686-5.054-3.374-5.054-2.954 0-3.29 2.954-3.29 5.04 0 2.058.364 5.012 3.388 5.012zm-.042-1.61c-1.582 0-1.624-1.806-1.624-3.402 0-1.652.042-3.43 1.568-3.43s1.568 1.764 1.568 3.416c0 1.568-.028 3.416-1.512 3.416zM539.673 202.61c1.134 0 1.96-.98 1.96-2.24 0-1.288-.84-2.268-2.002-2.268-1.176 0-1.988.952-1.988 2.254s.826 2.254 2.03 2.254zm-1.19 5.39h1.19l5.88-9.758h-1.19l-5.88 9.758zm1.19-6.524c-.56 0-.896-.434-.896-1.12 0-.686.322-1.12.854-1.12.518 0 .868.448.868 1.134 0 .644-.35 1.106-.826 1.106zm4.732 6.664c1.134 0 1.974-.98 1.974-2.254s-.854-2.254-2.016-2.254c-1.176 0-1.974.952-1.974 2.24 0 1.316.812 2.268 2.016 2.268zm0-1.134c-.546 0-.882-.434-.882-1.134 0-.672.322-1.106.84-1.106.532 0 .882.448.882 1.12 0 .658-.35 1.12-.84 1.12zM584.924 204.094v-5.852h-1.47l-4.774 6.454v1.008h4.564V208h1.68v-2.296h1.554v-1.61h-1.554zm-4.116 0l2.436-3.43v3.43h-2.436zM590.999 201.294c-.448 0-.98.084-1.512.42l.35-1.862h4.046v-1.61h-5.432l-.938 5.138 1.582.392c.322-.504.854-.91 1.68-.91 1.232 0 1.764.826 1.764 1.736 0 .952-.574 1.932-1.806 1.932-1.162 0-1.764-.826-1.862-1.624l-1.652.28c.238 1.638 1.652 2.954 3.528 2.954 2.086 0 3.57-1.68 3.57-3.542 0-1.778-1.358-3.304-3.318-3.304zM597.466 202.61c1.134 0 1.96-.98 1.96-2.24 0-1.288-.84-2.268-2.002-2.268-1.176 0-1.988.952-1.988 2.254s.826 2.254 2.03 2.254zm-1.19 5.39h1.19l5.88-9.758h-1.19l-5.88 9.758zm1.19-6.524c-.56 0-.896-.434-.896-1.12 0-.686.322-1.12.854-1.12.518 0 .868.448.868 1.134 0 .644-.35 1.106-.826 1.106zm4.732 6.664c1.134 0 1.974-.98 1.974-2.254s-.854-2.254-2.016-2.254c-1.176 0-1.974.952-1.974 2.24 0 1.316.812 2.268 2.016 2.268zm0-1.134c-.546 0-.882-.434-.882-1.134 0-.672.322-1.106.84-1.106.532 0 .882.448.882 1.12 0 .658-.35 1.12-.84 1.12zM640.589 201.294c-.448 0-.98.084-1.512.42l.35-1.862h4.046v-1.61h-5.432l-.938 5.138 1.582.392c.322-.504.854-.91 1.68-.91 1.232 0 1.764.826 1.764 1.736 0 .952-.574 1.932-1.806 1.932-1.162 0-1.764-.826-1.862-1.624l-1.652.28c.238 1.638 1.652 2.954 3.528 2.954 2.086 0 3.57-1.68 3.57-3.542 0-1.778-1.358-3.304-3.318-3.304zM648.666 208.14c2.618 0 3.276-2.59 3.276-4.998 0-2.436-.686-5.054-3.374-5.054-2.954 0-3.29 2.954-3.29 5.04 0 2.058.364 5.012 3.388 5.012zm-.042-1.61c-1.582 0-1.624-1.806-1.624-3.402 0-1.652.042-3.43 1.568-3.43s1.568 1.764 1.568 3.416c0 1.568-.028 3.416-1.512 3.416zM655.259 202.61c1.134 0 1.96-.98 1.96-2.24 0-1.288-.84-2.268-2.002-2.268-1.176 0-1.988.952-1.988 2.254s.826 2.254 2.03 2.254zm-1.19 5.39h1.19l5.88-9.758h-1.19l-5.88 9.758zm1.19-6.524c-.56 0-.896-.434-.896-1.12 0-.686.322-1.12.854-1.12.518 0 .868.448.868 1.134 0 .644-.35 1.106-.826 1.106zm4.732 6.664c1.134 0 1.974-.98 1.974-2.254s-.854-2.254-2.016-2.254c-1.176 0-1.974.952-1.974 2.24 0 1.316.812 2.268 2.016 2.268zm0-1.134c-.546 0-.882-.434-.882-1.134 0-.672.322-1.106.84-1.106.532 0 .882.448.882 1.12 0 .658-.35 1.12-.84 1.12zM.443 20h2.814c3.304 0 5.096-1.694 5.096-4.802 0-3.164-1.848-4.956-5.082-4.956H.443V20zm1.75-1.61v-6.538h1.05c2.31 0 3.346 1.022 3.346 3.276 0 2.296-1.036 3.262-3.5 3.262h-.896zM9.829 11.796h1.764v-1.554H9.829v1.554zM9.87 20h1.68v-6.902H9.87V20zM15.678 20.14c1.302 0 2.688-.7 2.688-2.31 0-2.52-3.612-1.904-3.612-2.954 0-.322.336-.588.882-.588.756 0 1.134.448 1.372.882l1.302-.714c-.518-.938-1.428-1.498-2.618-1.498-1.33 0-2.534.686-2.534 2.016 0 2.562 3.556 1.792 3.556 2.954 0 .364-.336.812-1.12.812-.924 0-1.288-.63-1.47-1.134l-1.344.602c.336 1.05 1.442 1.932 2.898 1.932zM23.465 14.428v-1.33h-1.722v-2.856l-1.68 1.246v1.61h-1.12v1.33h1.12v3.64c0 1.47.98 2.072 2.142 2.072.42 0 .84-.07 1.26-.21v-1.344a2.901 2.901 0 01-.84.154c-.546 0-.882-.252-.882-.798v-3.514h1.722zM28.384 12.958c-.784 0-1.554.462-1.848 1.316v-1.176h-1.694V20h1.68v-3.472c0-1.302.504-1.932 1.526-1.932.336 0 .602.084.84.238l.812-1.484c-.448-.28-.854-.392-1.316-.392zM30.515 11.796h1.764v-1.554h-1.765v1.554zM30.556 20h1.68v-6.902h-1.68V20zM36.937 20.14c1.372 0 2.436-.756 2.898-2.044l-1.526-.588c-.182.714-.714 1.162-1.386 1.162-1.176 0-1.61-1.008-1.61-2.1s.448-2.142 1.61-2.142c.686 0 1.204.462 1.386 1.19l1.596-.63c-.532-1.372-1.61-2.03-2.982-2.03-2.254 0-3.332 1.792-3.332 3.612s1.092 3.57 3.346 3.57zM44.793 14.428v-1.33h-1.722v-2.856l-1.68 1.246v1.61h-1.12v1.33h1.12v3.64c0 1.47.98 2.072 2.142 2.072.42 0 .84-.07 1.26-.21v-1.344a2.901 2.901 0 01-.84.154c-.546 0-.882-.252-.882-.798v-3.514h1.722zM52.47 20.14c2.129 0 3.459-1.652 3.459-3.598 0-1.96-1.33-3.584-3.458-3.584-2.142 0-3.458 1.624-3.458 3.584 0 1.946 1.316 3.598 3.458 3.598zm0-1.47c-1.273 0-1.777-1.008-1.777-2.128 0-1.134.504-2.114 1.778-2.114s1.778.98 1.778 2.114c0 1.12-.504 2.128-1.778 2.128zM57.677 20h1.68v-5.572h1.61v-1.33h-1.61V12.3c0-.252 0-.798.602-.798.224 0 .42.07.574.168l.546-1.288a2.985 2.985 0 00-1.302-.28c-1.092 0-2.086.462-2.086 2.212v.784h-1.33v1.33h1.316V20zM6.02 34.21c2.087 0 3.655-1.022 4.355-2.912l-1.638-.616c-.42 1.232-1.372 1.862-2.716 1.862-1.876 0-2.982-1.246-2.982-3.444 0-2.184 1.092-3.416 2.982-3.416 1.33 0 2.282.602 2.716 1.82l1.61-.63c-.714-1.862-2.268-2.856-4.326-2.856-2.884 0-4.732 1.974-4.732 5.096S3.137 34.21 6.02 34.21zM14.271 34.14c2.128 0 3.459-1.652 3.459-3.598 0-1.96-1.33-3.584-3.459-3.584-2.142 0-3.458 1.624-3.458 3.584 0 1.946 1.316 3.598 3.458 3.598zm0-1.47c-1.274 0-1.778-1.008-1.778-2.128 0-1.134.505-2.114 1.778-2.114 1.274 0 1.778.98 1.778 2.114 0 1.12-.503 2.128-1.777 2.128zM20.626 34.14c.322 0 .7-.07 1.078-.21v-1.344a1.982 1.982 0 01-.532.084c-.308 0-.49-.126-.49-.434v-7.994h-1.68v8.106c0 1.232.686 1.792 1.624 1.792zM27.295 27.098v2.618c0 1.232 0 2.954-1.568 2.954-1.274 0-1.274-1.204-1.274-1.68v-3.892h-1.68v4.312c0 1.47.728 2.73 2.464 2.73.812 0 1.568-.28 2.058-.938V34h1.68v-6.902h-1.68zM38.653 26.958c-.896 0-1.694.322-2.226 1.358-.42-1.064-1.26-1.358-2.016-1.358-.686 0-1.4.238-1.848 1.008v-.868H30.94L30.953 34h1.68v-2.632c0-1.386-.042-2.94 1.372-2.94 1.092 0 1.162 1.134 1.162 1.68V34h1.68v-2.632c0-1.386-.056-2.94 1.358-2.94 1.106 0 1.176 1.134 1.176 1.68V34h1.68v-4.396c0-1.386-.742-2.646-2.408-2.646zM46.53 26.958c-.785 0-1.555.322-1.989.84v-3.556h-1.68V34h1.68v-.686c.477.588 1.247.826 1.989.826 1.876 0 2.911-1.526 2.911-3.598 0-2.254-1.218-3.584-2.912-3.584zm-.407 5.628c-1.217 0-1.735-.882-1.735-2.03 0-1.148.518-2.072 1.721-2.072 1.12 0 1.652.784 1.652 2.072 0 1.274-.518 2.03-1.638 2.03zM50.83 25.796h1.765v-1.554H50.83v1.554zM50.874 34h1.68v-6.902h-1.68V34zM57.184 26.958c-1.26 0-2.282.49-3.108 1.484l1.218 1.022c.504-.672 1.162-1.036 1.862-1.036.798 0 1.302.462 1.302 1.218v.196h-1.722c-.784 0-1.372.098-1.834.308-.672.308-1.036.924-1.036 1.736 0 1.316 1.036 2.254 2.492 2.254.91 0 1.694-.392 2.1-1.036l.14.896h1.54v-4.354c0-1.666-1.134-2.688-2.954-2.688zm-.56 5.754c-.672 0-1.078-.308-1.078-.798 0-.252.098-.448.28-.574.224-.168.56-.238 1.134-.238h1.498c0 .896-.826 1.61-1.834 1.61zM9.452 66.242l-2.52 6.874-2.506-6.874H1.92V76h1.75v-7.294l2.422 6.44h1.694l2.422-6.44V76h1.75v-9.758H9.452zM16.81 68.958c-1.26 0-2.281.49-3.107 1.484l1.218 1.022c.504-.672 1.162-1.036 1.861-1.036.799 0 1.302.462 1.302 1.218v.196h-1.721c-.784 0-1.372.098-1.835.308-.671.308-1.036.924-1.036 1.736 0 1.316 1.037 2.254 2.493 2.254.91 0 1.694-.392 2.1-1.036l.14.896h1.54v-4.354c0-1.666-1.134-2.688-2.954-2.688zm-.56 5.754c-.671 0-1.077-.308-1.077-.798 0-.252.098-.448.28-.574.224-.168.56-.238 1.134-.238h1.497c0 .896-.825 1.61-1.834 1.61zM25.075 68.958c-.784 0-1.554.462-1.848 1.316v-1.176h-1.694V76h1.68v-3.472c0-1.302.504-1.932 1.526-1.932.336 0 .602.084.84.238l.812-1.484c-.448-.28-.854-.392-1.316-.392zM27.969 78.856h1.82l3.92-9.758H31.86l-1.764 4.788-1.75-4.788h-1.848l2.702 6.72-1.232 3.038zM36.171 76.14c.322 0 .7-.07 1.078-.21v-1.344a1.982 1.982 0 01-.532.084c-.308 0-.49-.126-.49-.434v-7.994h-1.68v8.106c0 1.232.686 1.792 1.624 1.792zM41.147 68.958c-1.26 0-2.282.49-3.108 1.484l1.218 1.022c.504-.672 1.162-1.036 1.861-1.036.798 0 1.302.462 1.302 1.218v.196H40.7c-.785 0-1.372.098-1.834.308-.672.308-1.037.924-1.037 1.736 0 1.316 1.036 2.254 2.492 2.254.91 0 1.694-.392 2.1-1.036l.14.896h1.54v-4.354c0-1.666-1.133-2.688-2.953-2.688zm-.56 5.754c-.673 0-1.079-.308-1.079-.798 0-.252.098-.448.28-.574.225-.168.56-.238 1.135-.238h1.497c0 .896-.826 1.61-1.834 1.61zM49.635 68.958c-.84 0-1.596.28-2.086.938v-.798h-1.68V76h1.68v-2.758c0-1.232 0-2.814 1.568-2.814 1.274 0 1.274 1.064 1.274 1.54V76h1.68v-4.452c0-1.638-.882-2.59-2.436-2.59zM58.249 66.242v3.556c-.434-.518-1.204-.84-1.988-.84-1.694 0-2.912 1.33-2.912 3.584 0 2.072 1.036 3.598 2.912 3.598.742 0 1.512-.238 1.988-.826V76h1.68v-9.758h-1.68zm-1.582 8.344c-1.12 0-1.638-.756-1.638-2.03 0-1.288.532-2.072 1.652-2.072 1.204 0 1.722.924 1.722 2.072 0 1.148-.518 2.03-1.736 2.03zM20.066 112.242l-2.618 6.902-2.632-6.902h-1.932L16.79 122h1.316l3.892-9.758h-1.932zM22.995 113.796h1.764v-1.554h-1.764v1.554zm.042 8.204h1.68v-6.902h-1.68V122zM30.216 114.958c-.784 0-1.554.462-1.848 1.316v-1.176h-1.694V122h1.68v-3.472c0-1.302.504-1.932 1.526-1.932.336 0 .602.084.84.238l.812-1.484c-.448-.28-.854-.392-1.316-.392zM34.679 120.95c-.868-.112-1.568-.252-1.568-.756 0-.168.07-.28.196-.364.406.168.854.266 1.33.266 1.512 0 2.8-.98 2.8-2.52 0-.448-.112-.854-.294-1.204l.994-.812-.882-1.064-1.05.896a3.127 3.127 0 00-1.624-.434c-1.54 0-2.828 1.036-2.828 2.534 0 .602.21 1.148.56 1.582-.406.35-.644.784-.644 1.386 0 .714.336 1.148.826 1.414l-.994.63c-.014.07-.028.14-.028.308 0 1.428 1.176 2.184 3.234 2.184 1.862 0 3.178-.616 3.178-2.058 0-1.652-1.806-1.806-3.206-1.988zm-.07-4.592c.714 0 1.148.462 1.148 1.176 0 .672-.378 1.19-1.148 1.19-.784 0-1.176-.532-1.176-1.19 0-.7.462-1.176 1.176-1.176zm.168 7.378c-.784 0-1.638-.182-1.638-.77 0-.028 0-.07.014-.112l.602-.574.574.084c.994.14 1.876.196 1.876.728 0 .476-.714.644-1.428.644zM39.182 113.796h1.764v-1.554h-1.764v1.554zm.042 8.204h1.68v-6.902h-1.68V122zM46.627 114.958c-.84 0-1.596.28-2.086.938v-.798h-1.68V122h1.68v-2.758c0-1.232 0-2.814 1.568-2.814 1.274 0 1.274 1.064 1.274 1.54V122h1.68v-4.452c0-1.638-.882-2.59-2.436-2.59zM50.83 113.796h1.765v-1.554H50.83v1.554zm.043 8.204h1.68v-6.902h-1.68V122zM57.184 114.958c-1.26 0-2.282.49-3.108 1.484l1.218 1.022c.504-.672 1.162-1.036 1.862-1.036.798 0 1.302.462 1.302 1.218v.196h-1.722c-.784 0-1.372.098-1.834.308-.672.308-1.036.924-1.036 1.736 0 1.316 1.036 2.254 2.492 2.254.91 0 1.694-.392 2.1-1.036l.14.896h1.54v-4.354c0-1.666-1.134-2.688-2.954-2.688zm-.56 5.754c-.672 0-1.078-.308-1.078-.798 0-.252.098-.448.28-.574.224-.168.56-.238 1.134-.238h1.498c0 .896-.826 1.61-1.834 1.61zM28.73 169h1.988v-7.952h2.954v-1.806h-7.896v1.806h2.954V169zM36.118 169.154c2.17 0 3.5-1.694 3.5-3.612 0-1.932-1.316-3.598-3.5-3.598-2.198 0-3.5 1.666-3.5 3.598 0 1.918 1.316 3.612 3.5 3.612zm0-1.666c-1.218 0-1.61-.966-1.61-1.946 0-1.008.406-1.946 1.61-1.946 1.218 0 1.61.938 1.61 1.946 0 .994-.406 1.946-1.61 1.946zM44.66 163.582v-1.484h-1.736v-2.856l-1.89 1.4v1.456h-1.12v1.484h1.12v3.346c0 1.624 1.064 2.226 2.296 2.226.462 0 .896-.07 1.33-.224v-1.498a2.915 2.915 0 01-.868.154c-.7 0-.868-.406-.868-.812v-3.192h1.736zM48.775 161.944c-1.232 0-2.38.448-3.22 1.4l1.372 1.148c.56-.63 1.148-.896 1.764-.896.784 0 1.246.406 1.246 1.036v.154h-1.82c-.7 0-1.26.098-1.708.322-.63.322-.994.91-.994 1.722 0 1.358 1.078 2.324 2.576 2.324.7 0 1.47-.252 1.96-.952l.14.798h1.736v-4.368c0-1.652-1.162-2.688-3.052-2.688zm-.476 5.642c-.644 0-.994-.308-.994-.728 0-.21.084-.378.252-.49.168-.126.434-.182.826-.182h1.554c-.014.798-.756 1.4-1.638 1.4zM55.038 169.154c.322 0 .714-.07 1.12-.224v-1.498c-.182.042-.35.07-.49.07-.28 0-.448-.084-.448-.406v-7.854h-1.89v8.05c0 1.288.742 1.862 1.708 1.862zM57.66 164.324h2.016v-1.918H57.66v1.918zm0 4.676h2.016v-1.904H57.66V169z" fill="#505050"/><path fill-rule="evenodd" clip-rule="evenodd" d="M648.314 1.5H71.434v-1h576.88v1zM648.314 47.5H71.434v-1h576.88v1zM648.314 94.5H71.434v-1h576.88v1zM648.314 141.5H71.434v-1h576.88v1zM648.314 188.5H71.434v-1h576.88v1z" fill="#F0F0F0"/><path d="M71.434 38V10h287.915v28H71.434zM71.434 85V57h472.853v28H71.434zM71.434 131v-28h426.618v28H71.434z" fill="#45A1E2"/><path d="M71.434 178v-28h415.06v28H71.434z" fill="#E6485B"/></svg>